<?xml version="1.0" standalone="no"?>
<!DOCTYPE svg PUBLIC "-//W3C//DTD SVG 20010904//EN"
 "http://www.w3.org/TR/2001/REC-SVG-20010904/DTD/svg10.dtd">
<svg version="1.0" xmlns="http://www.w3.org/2000/svg"
 width="700.000000pt" height="700.000000pt" viewBox="0 0 700.000000 700.000000"
 preserveAspectRatio="xMidYMid meet">
<metadata>
Created by potrace 1.11, written by Peter Selinger 2001-2013
</metadata>
<g transform="translate(0.000000,700.000000) scale(0.100000,-0.100000)"
fill="#000000" stroke="none">
<path d="M4175 6986 c-11 -7 -62 -34 -114 -61 -52 -28 -101 -54 -110 -60 -9
-5 -34 -21 -56 -34 -92 -55 -226 -150 -320 -225 -341 -274 -609 -643 -743
-1026 -54 -153 -90 -285 -106 -390 -3 -19 -10 -62 -16 -94 -34 -203 -31 -601
5 -816 2 -8 6 -35 9 -60 13 -81 56 -274 76 -335 l19 -60 1 85 c1 117 18 368
25 380 2 3 6 30 9 62 22 203 114 521 215 741 55 120 179 333 233 402 5 6 36
46 70 90 148 192 362 390 588 547 284 197 721 392 1038 464 70 16 115 34 85
34 -10 0 -371 150 -458 190 -69 32 -394 168 -410 173 -11 2 -29 -1 -40 -7z"/>
<path d="M2273 6807 l-452 -141 -27 -65 c-15 -36 -35 -84 -45 -106 -23 -49
-108 -309 -115 -349 -3 -16 -7 -32 -9 -36 -2 -3 -6 -17 -9 -31 -2 -13 -11 -55
-19 -94 -36 -167 -50 -303 -51 -490 -1 -176 6 -321 18 -356 3 -7 7 -32 10 -54
32 -251 161 -590 325 -855 188 -302 490 -619 794 -830 48 -34 87 -59 87 -57 0
2 -34 46 -76 98 -349 433 -561 939 -610 1454 -13 129 -7 449 10 540 2 11 6 41
10 66 41 285 141 596 288 894 101 207 164 310 327 536 7 10 10 19 5 18 -5 0
-212 -64 -461 -142z"/>
<path d="M5258 5815 c-2 -2 -32 -6 -68 -9 -65 -6 -100 -11 -152 -22 -15 -3
-39 -7 -55 -9 -49 -6 -193 -45 -303 -82 -140 -46 -381 -165 -510 -251 -389
-260 -726 -655 -941 -1102 -33 -69 -64 -134 -70 -145 -5 -11 18 12 53 50 104
117 328 337 408 400 41 33 77 63 80 66 10 12 218 148 285 186 208 120 465 219
700 268 311 65 728 70 1035 10 327 -63 614 -156 859 -279 50 -25 93 -46 96
-46 5 0 -420 846 -431 859 -6 7 -157 41 -269 61 -101 18 -152 26 -245 37 -42
5 -467 12 -472 8z"/>
<path d="M645 5551 c-43 -69 -159 -251 -257 -404 l-179 -278 31 -101 c227
-762 686 -1320 1325 -1614 240 -110 568 -196 835 -219 36 -4 85 -8 110 -10
125 -13 464 -3 529 15 20 5 6 10 -64 23 -125 24 -118 22 -240 56 -473 129
-856 344 -1169 655 -210 208 -349 402 -496 687 -183 359 -318 872 -334 1276 0
17 -3 33 -6 36 -3 2 -41 -53 -85 -122z"/>
<path d="M4758 4555 c-1 -1 -37 -6 -78 -9 -171 -16 -420 -70 -605 -131 -165
-55 -435 -169 -423 -180 3 -3 62 6 133 19 17 3 64 9 105 12 41 3 93 10 116 14
47 8 448 5 514 -4 25 -4 59 -9 75 -11 92 -11 189 -29 260 -47 44 -11 85 -21
90 -22 128 -28 493 -185 599 -258 6 -4 56 -37 111 -74 305 -203 565 -470 804
-826 105 -158 245 -418 291 -542 6 -16 13 -26 16 -23 3 3 36 142 74 308 37
167 85 377 105 466 l37 162 -63 83 c-367 487 -797 808 -1288 962 -128 40 -252
68 -366 82 -27 4 -54 9 -59 12 -9 5 -442 13 -448 7z"/>
<path d="M4089 3928 c125 -76 302 -198 392 -270 111 -88 302 -273 380 -368 30
-36 56 -67 59 -70 18 -18 135 -189 178 -260 168 -281 297 -655 337 -975 34
-274 34 -575 0 -810 -3 -16 -7 -52 -10 -80 -10 -85 -54 -295 -86 -404 -16 -57
-28 -105 -27 -106 3 -3 190 136 283 210 17 12 131 100 255 194 l225 171 5 68
c8 89 5 408 -4 497 -43 438 -168 811 -379 1133 -311 474 -799 832 -1407 1032
-52 18 -102 33 -110 35 -8 1 -35 8 -60 15 -25 6 -54 13 -65 16 -11 3 4 -10 34
-28z"/>
<path d="M4184 3460 c4 -14 11 -34 16 -45 8 -19 41 -119 46 -140 2 -5 15 -53
29 -105 26 -95 31 -113 40 -160 3 -14 7 -36 10 -50 41 -203 54 -357 50 -585
-10 -511 -156 -956 -462 -1406 -107 -158 -195 -261 -378 -444 -176 -176 -292
-274 -464 -389 -46 -31 -78 -56 -70 -57 8 0 25 -2 39 -3 14 -2 95 -7 180 -10
85 -4 184 -9 220 -11 36 -2 112 -7 170 -10 58 -2 158 -8 222 -11 l118 -6 64
69 c74 79 217 251 252 303 13 19 42 62 64 95 21 33 43 65 47 70 24 29 109 184
156 285 69 146 119 285 157 436 36 145 41 173 60 351 8 77 6 414 -4 463 -6 29
-12 75 -21 145 -26 199 -174 630 -285 830 -9 17 -32 57 -50 90 -41 75 -155
250 -188 290 -24 29 -25 29 -18 5z"/>
<path d="M5 3374 c6 -42 51 -408 60 -489 3 -27 8 -61 10 -75 2 -14 11 -83 20
-155 27 -228 14 -198 124 -270 200 -131 433 -247 641 -320 114 -39 263 -81
326 -91 21 -3 57 -9 79 -14 22 -5 67 -11 100 -15 33 -3 70 -8 83 -11 33 -7
327 -7 387 0 328 39 557 104 833 238 160 77 418 239 531 333 158 130 279 243
318 294 l26 33 -24 -15 c-206 -132 -543 -273 -816 -341 -356 -88 -767 -96
-1103 -19 -344 77 -635 201 -940 399 -80 52 -208 141 -245 171 -115 93 -221
189 -308 276 l-108 109 6 -38z"/>
<path d="M3967 3023 c-2 -5 -12 -33 -22 -63 -28 -86 -122 -294 -188 -415 -344
-631 -860 -1048 -1547 -1252 -176 -52 -384 -90 -600 -110 -174 -16 -559 -9
-690 14 -35 6 -35 6 -14 -13 25 -23 255 -238 368 -345 45 -42 113 -106 151
-141 39 -36 93 -87 120 -112 l50 -47 65 6 c80 7 129 14 240 35 30 6 69 13 85
16 111 20 361 97 485 149 314 132 533 278 766 510 225 224 405 498 526 800 58
145 136 398 153 495 3 19 10 53 15 75 14 62 17 85 35 230 8 71 15 175 10 175
-2 0 -6 -3 -8 -7z"/>
</g>
</svg>
