<?xml version="1.0" encoding="utf-8"?>
<!-- Generator: Adobe Illustrator 16.0.0, SVG Export Plug-In . SVG Version: 6.00 Build 0)  -->
<!DOCTYPE svg PUBLIC "-//W3C//DTD SVG 1.1//EN" "http://www.w3.org/Graphics/SVG/1.1/DTD/svg11.dtd">
<svg version="1.1" id="레이어_1" xmlns="http://www.w3.org/2000/svg" xmlns:xlink="http://www.w3.org/1999/xlink" x="0px"
	 y="0px" width="34.93px" height="22.867px" viewBox="0 0 34.93 22.867" enable-background="new 0 0 34.93 22.867"
	 xml:space="preserve">
<g>
	<linearGradient id="SVGID_1_" gradientUnits="userSpaceOnUse" x1="17.4648" y1="22.5029" x2="17.4648" y2="0.5549">
		<stop  offset="0" style="stop-color:#666464"/>
		<stop  offset="0.5" style="stop-color:#444140"/>
		<stop  offset="0.5" style="stop-color:#5F5E5E"/>
		<stop  offset="1" style="stop-color:#535151"/>
	</linearGradient>
	<path fill="url(#SVGID_1_)" d="M23.998,7.456c-2.557,0-4.631,2.074-4.631,4.63c0,2.557,2.074,4.633,4.631,4.633
		s4.627-2.076,4.627-4.633C28.625,9.531,26.555,7.456,23.998,7.456z M24.16,13.969c-1.07,0-1.936-0.865-1.936-1.936
		s0.863-1.936,1.936-1.936c1.068,0,1.936,0.865,1.936,1.936C26.096,13.102,25.23,13.969,24.16,13.969z M12.803,1.69
		c-1.102,0-2-0.38-2-0.845S9.902,0,8.803,0H5.92c-1.1,0-2,0.38-2,0.845S3.039,1.69,1.961,1.69C0.881,1.69,0,2.59,0,3.69v17.177
		c0,1.1,0.9,2,2,2h30.93c1.1,0,2-0.9,2-2V3.69c0-1.1-0.9-2-2-2H12.803z M10.803,6.398c0,0.87-0.9,1.582-2,1.582H5.92
		c-1.1,0-2-0.712-2-1.582c0-0.871,0.9-1.583,2-1.583h2.883C9.902,4.816,10.803,5.528,10.803,6.398z M23.998,19.256
		c-3.959,0-7.17-3.209-7.17-7.168c0-3.958,3.211-7.17,7.17-7.17s7.168,3.212,7.168,7.17C31.166,16.047,27.957,19.256,23.998,19.256z
		"/>
</g>
</svg>
