<?xml version="1.0" encoding="utf-8"?>
<!-- Generator: Adobe Illustrator 16.0.0, SVG Export Plug-In . SVG Version: 6.00 Build 0)  -->
<!DOCTYPE svg PUBLIC "-//W3C//DTD SVG 1.1//EN" "http://www.w3.org/Graphics/SVG/1.1/DTD/svg11.dtd">
<svg version="1.1" id="레이어_1" xmlns="http://www.w3.org/2000/svg" xmlns:xlink="http://www.w3.org/1999/xlink" x="0px"
	 y="0px" width="28.088px" height="25.952px" viewBox="0 0 28.088 25.952" enable-background="new 0 0 28.088 25.952"
	 xml:space="preserve">
<linearGradient id="SVGID_1_" gradientUnits="userSpaceOnUse" x1="14.0439" y1="25.9521" x2="14.0439" y2="4.882813e-004">
	<stop  offset="0" style="stop-color:#666464"/>
	<stop  offset="0.5" style="stop-color:#444140"/>
	<stop  offset="0.5" style="stop-color:#5F5E5E"/>
	<stop  offset="1" style="stop-color:#535151"/>
</linearGradient>
<path fill="url(#SVGID_1_)" d="M7.605,16.042l9.246-9.245l-0.078,0.068c0.119-0.094,3.012-2.313,5.254-0.068
	c2.154,2.155,0.207,4.397-0.021,4.647l0.021-0.025L10.842,22.605l0.059-0.052c-0.17,0.141-4.178,3.421-7.547,0.052
	c-3.256-3.256-0.34-6.401,0.002-6.75C3.354,15.857,15.557,3.654,15.557,3.654L15.508,3.7c0.195-0.167,4.877-4.089,8.924-0.046
	c4.035,4.036,0.133,8.541-0.037,8.73l0.037-0.039l-9.707,9.706l1.295,1.295l9.707-9.706l0.016-0.02l0.02-0.02
	c1.83-2.046,4.178-7.027-0.033-11.241c-4.207-4.206-9.309-1.867-11.418-0.045l-0.023,0.021L14.266,2.36L2.061,14.563
	c-1.613,1.614-3.691,5.645,0,9.336c3.652,3.651,8.152,1.631,10.021,0.053l0.029-0.025l0.025-0.025l11.186-11.188
	c1.223-1.299,2.766-4.449,0-7.211C20.6,2.78,17.104,4.267,15.635,5.436l-0.041,0.032l-0.037,0.035l-9.244,9.247L7.605,16.042z"/>
</svg>
