<?xml version="1.0" encoding="utf-8"?>
<!-- Generator: Adobe Illustrator 16.0.0, SVG Export Plug-In . SVG Version: 6.00 Build 0)  -->
<!DOCTYPE svg PUBLIC "-//W3C//DTD SVG 1.1//EN" "http://www.w3.org/Graphics/SVG/1.1/DTD/svg11.dtd">
<svg version="1.1" id="레이어_1" xmlns="http://www.w3.org/2000/svg" xmlns:xlink="http://www.w3.org/1999/xlink" x="0px"
	 y="0px" width="16.133px" height="16.132px" viewBox="0 0 16.133 16.132" enable-background="new 0 0 16.133 16.132"
	 xml:space="preserve">
<linearGradient id="SVGID_1_" gradientUnits="userSpaceOnUse" x1="12.0996" y1="16.7646" x2="12.0996" y2="0.5229">
	<stop  offset="0" style="stop-color:#666464"/>
	<stop  offset="0.5" style="stop-color:#444140"/>
	<stop  offset="0.5" style="stop-color:#5F5E5E"/>
	<stop  offset="1" style="stop-color:#535151"/>
</linearGradient>
<polygon fill="url(#SVGID_1_)" points="13.398,0 8.066,5.332 10.801,8.066 16.133,2.734 "/>
<linearGradient id="SVGID_2_" gradientUnits="userSpaceOnUse" x1="4.0337" y1="16.7666" x2="4.0337" y2="0.5229">
	<stop  offset="0" style="stop-color:#666464"/>
	<stop  offset="0.5" style="stop-color:#444140"/>
	<stop  offset="0.5" style="stop-color:#5F5E5E"/>
	<stop  offset="1" style="stop-color:#535151"/>
</linearGradient>
<polygon fill="url(#SVGID_2_)" points="0,13.398 2.734,16.133 8.066,10.801 5.332,8.066 "/>
<linearGradient id="SVGID_3_" gradientUnits="userSpaceOnUse" x1="12.0996" y1="16.7666" x2="12.0996" y2="0.5228">
	<stop  offset="0" style="stop-color:#666464"/>
	<stop  offset="0.5" style="stop-color:#444140"/>
	<stop  offset="0.5" style="stop-color:#5F5E5E"/>
	<stop  offset="1" style="stop-color:#535151"/>
</linearGradient>
<polygon fill="url(#SVGID_3_)" points="13.398,16.133 16.133,13.398 10.801,8.066 8.066,10.801 "/>
<linearGradient id="SVGID_4_" gradientUnits="userSpaceOnUse" x1="4.0337" y1="16.7656" x2="4.0337" y2="0.5236">
	<stop  offset="0" style="stop-color:#666464"/>
	<stop  offset="0.5" style="stop-color:#444140"/>
	<stop  offset="0.5" style="stop-color:#5F5E5E"/>
	<stop  offset="1" style="stop-color:#535151"/>
</linearGradient>
<polygon fill="url(#SVGID_4_)" points="2.734,0 0,2.734 5.332,8.066 8.066,5.332 "/>
<linearGradient id="SVGID_5_" gradientUnits="userSpaceOnUse" x1="8.0664" y1="16.7676" x2="8.0664" y2="0.5238">
	<stop  offset="0" style="stop-color:#666464"/>
	<stop  offset="0.5" style="stop-color:#444140"/>
	<stop  offset="0.5" style="stop-color:#5F5E5E"/>
	<stop  offset="1" style="stop-color:#535151"/>
</linearGradient>
<polygon fill="url(#SVGID_5_)" points="5.332,8.066 8.066,10.8 10.801,8.066 8.066,5.332 "/>
<linearGradient id="SVGID_6_" gradientUnits="userSpaceOnUse" x1="8.0664" y1="16.7676" x2="8.0664" y2="0.5238">
	<stop  offset="0" style="stop-color:#666464"/>
	<stop  offset="0.5" style="stop-color:#444140"/>
	<stop  offset="0.5" style="stop-color:#5F5E5E"/>
	<stop  offset="1" style="stop-color:#535151"/>
</linearGradient>
<polygon fill="url(#SVGID_6_)" points="5.332,8.066 8.066,10.8 10.801,8.066 8.066,5.332 "/>
</svg>
