<?xml version="1.0" encoding="utf-8"?>
<!-- Generator: Adobe Illustrator 16.0.0, SVG Export Plug-In . SVG Version: 6.00 Build 0)  -->
<!DOCTYPE svg PUBLIC "-//W3C//DTD SVG 1.1//EN" "http://www.w3.org/Graphics/SVG/1.1/DTD/svg11.dtd">
<svg version="1.1" id="레이어_1" xmlns="http://www.w3.org/2000/svg" xmlns:xlink="http://www.w3.org/1999/xlink" x="0px"
	 y="0px" width="30.538px" height="30.538px" viewBox="0 0 30.538 30.538" enable-background="new 0 0 30.538 30.538"
	 xml:space="preserve">
<ellipse fill="#712F00" cx="15.65" cy="15.67" rx="8.381" ry="12.591"/>
<path fill="#FAF1A6" d="M15.27,0.333c-8.25,0-14.937,6.688-14.937,14.938c0,8.248,6.688,14.936,14.937,14.936
	c8.25,0,14.936-6.688,14.936-14.936C30.205,7.021,23.518,0.333,15.27,0.333L15.27,0.333z M17.137,17.201l1.869,6.735H15.27h-3.735
	l1.868-6.735l0.742-2.678c-1.683-0.487-2.914-2.038-2.914-3.88c0-2.23,1.808-4.04,4.041-4.04c2.231,0,4.039,1.81,4.039,4.04
	c0,1.842-1.229,3.393-2.914,3.88L17.137,17.201L17.137,17.201z"/>
<path d="M0,15.271c0,8.419,6.85,15.268,15.27,15.268c8.418,0,15.269-6.849,15.269-15.268C30.538,6.849,23.689,0,15.27,0
	C6.85,0.001,0,6.851,0,15.271z M0.665,15.271c0-8.054,6.551-14.604,14.604-14.604c8.051,0,14.602,6.551,14.602,14.604
	c0,8.052-6.551,14.602-14.602,14.602C7.217,29.872,0.665,23.322,0.665,15.271z"/>
<path d="M10.896,10.644c0,1.818,1.17,3.42,2.853,4.056c-0.119,0.43-2.653,9.57-2.653,9.57h8.348c0,0-2.534-9.142-2.654-9.57
	c1.684-0.636,2.854-2.236,2.854-4.056c0-2.41-1.961-4.372-4.373-4.372S10.896,8.233,10.896,10.644z M13.721,17.29l0.83-2.993
	l-0.314-0.093c-1.575-0.458-2.676-1.921-2.676-3.561c0-2.043,1.664-3.706,3.709-3.706c2.043,0,3.707,1.663,3.707,3.706
	c0,1.64-1.101,3.103-2.676,3.561l-0.314,0.093l0.83,2.993l0,0c0,0,1.545,5.573,1.752,6.313c-0.684,0-5.916,0-6.598,0
	C12.178,22.863,13.721,17.29,13.721,17.29z"/>
</svg>
