<?xml version="1.0" encoding="utf-8"?>
<!-- Generator: Adobe Illustrator 16.0.0, SVG Export Plug-In . SVG Version: 6.00 Build 0)  -->
<!DOCTYPE svg PUBLIC "-//W3C//DTD SVG 1.1//EN" "http://www.w3.org/Graphics/SVG/1.1/DTD/svg11.dtd">
<svg version="1.1" id="레이어_1" xmlns="http://www.w3.org/2000/svg" xmlns:xlink="http://www.w3.org/1999/xlink" x="0px"
	 y="0px" width="53px" height="51px" viewBox="0 0 53 51" enable-background="new 0 0 53 51" xml:space="preserve">
<path fill="#F7B249" d="M16.924,25.744l-0.822-0.03v8.074c0,5.733,4.664,10.397,10.398,10.397c5.732,0,10.396-4.664,10.396-10.397
	v-8.077L36.1,25.716C24.117,25.799,19.164,25.83,16.924,25.744L16.924,25.744z"/>
<path fill="#FFF100" d="M36.896,18.434c0-1.297-1.055-2.353-2.35-2.353h-6.701h-0.793v8.575l9.846-0.051l-0.002-0.787V18.434
	L36.896,18.434z"/>
<path fill="#FFF100" d="M25.156,24.662l0.789-0.002v-8.579h-0.791h-6.701c-1.297,0-2.352,1.056-2.352,2.353v6.203l0.779,0.012
	C18.26,24.668,21.045,24.674,25.156,24.662L25.156,24.662z"/>
<path d="M38.006,18.434c0-1.908-1.553-3.459-3.459-3.459h-7.494v-4.527c0.012-0.371,0.221-3.631,4.775-3.631
	c0.305,0,0.553-0.25,0.553-0.555s-0.248-0.554-0.553-0.554c-5.816,0-5.883,4.563-5.883,4.759v4.508h-7.492
	c-1.906,0-3.459,1.551-3.459,3.459v15.354c0,6.344,5.16,11.505,11.506,11.505c6.344,0,11.506-5.161,11.506-11.505V18.434
	L38.006,18.434z M16.102,18.434c0-1.297,1.057-2.353,2.352-2.353h6.703h0.791v8.579l-0.789,0.002
	c-4.111,0.012-6.896,0.006-8.275-0.014l-0.779-0.012v-6.203H16.102z M36.896,33.788c0,5.733-4.664,10.397-10.396,10.397
	s-10.398-4.664-10.398-10.397v-8.074l0.822,0.03c2.24,0.085,7.193,0.055,19.176-0.027l0.797-0.005V33.788L36.896,33.788z
	 M27.053,24.656v-8.575h0.793h6.701c1.295,0,2.35,1.056,2.35,2.353v5.383l0.002,0.789L27.053,24.656L27.053,24.656z"/>
</svg>
