<?xml version="1.0" encoding="utf-8"?>
<!-- Generator: Adobe Illustrator 16.0.0, SVG Export Plug-In . SVG Version: 6.00 Build 0)  -->
<!DOCTYPE svg PUBLIC "-//W3C//DTD SVG 1.1//EN" "http://www.w3.org/Graphics/SVG/1.1/DTD/svg11.dtd">
<svg version="1.1" id="Layer_1" xmlns="http://www.w3.org/2000/svg" xmlns:xlink="http://www.w3.org/1999/xlink" x="0px" y="0px"
	 width="86.01px" height="81.71px" viewBox="0 0 86.01 81.71" enable-background="new 0 0 86.01 81.71" xml:space="preserve">
<g opacity="0.2">
	<path fill="#010101" d="M81.69,0H4.319C1.937,0,0,1.937,0,4.319v73.074c0,2.381,1.937,4.318,4.319,4.318H81.69
		c2.382,0,4.319-1.938,4.319-4.318V4.319C86.01,1.937,84.072,0,81.69,0z M77.393,58.049H8.617V8.617h68.775V58.049z"/>
	<g>
		<path fill="#010101" d="M61.021,20.983c-0.873-2.371-2.253-3.578-3.729-3.578c-1.291,0-2.657,0.917-3.833,2.779L36.85,46.482
			c-2.525,3.998-0.723,7.268,4.007,7.268h23.641c4.729,0,7.26-3.631,5.625-8.068L61.021,20.983z"/>
		<g>
			<path fill="#010101" d="M33.214,44.188l6.737-10.666l-1.941-4.204c-1.981-4.292-5.961-4.739-8.842-0.992L18.157,42.639
				c-2.882,3.748-1.373,6.813,3.355,6.813h9.926C31.526,47.73,32.112,45.932,33.214,44.188z"/>
		</g>
	</g>
</g>
</svg>
