<?xml version="1.0" encoding="utf-8"?>
<!-- Generator: Adobe Illustrator 16.0.0, SVG Export Plug-In . SVG Version: 6.00 Build 0)  -->
<!DOCTYPE svg PUBLIC "-//W3C//DTD SVG 1.1//EN" "http://www.w3.org/Graphics/SVG/1.1/DTD/svg11.dtd">
<svg version="1.1" id="Layer_1" xmlns="http://www.w3.org/2000/svg" xmlns:xlink="http://www.w3.org/1999/xlink" x="0px" y="0px"
	 width="82.28px" height="82px" viewBox="0 0 82.28 82" enable-background="new 0 0 82.28 82" xml:space="preserve">
<g opacity="0.2">
	<g>
		<path fill="#010101" d="M48.593,62.021l5.66-5.66l17.231-17.233c-1.312-1.312-3.254-3.256-5.183-5.185
			c-1.928-1.928-3.872-3.872-5.184-5.182L43.886,45.994l-5.66,5.66c0.908,0.727,1.904,1.611,2.917,2.623l4.824,4.826
			C46.979,60.117,47.865,61.113,48.593,62.021z"/>
		<path fill="#010101" d="M36.447,55.209c-0.017,0.049-0.034,0.098-0.054,0.146c-0.181,0.514-0.371,1.074-0.569,1.686
			c-0.024,0.08-0.051,0.164-0.078,0.244c-0.211,0.664-0.43,1.363-0.65,2.119l-2.149,7.357c0.106,0.105,0.211,0.211,0.317,0.318
			c0.074,0.074,0.146,0.146,0.221,0.221l7.357-2.15c0.75-0.219,1.444-0.436,2.104-0.646c0.09-0.029,0.185-0.059,0.272-0.088
			c0.59-0.189,1.127-0.373,1.625-0.549c0.065-0.021,0.13-0.045,0.195-0.068c-0.496-0.578-1.097-1.236-1.815-1.951l-4.823-4.824
			C37.683,56.305,37.026,55.705,36.447,55.209z"/>
		<path fill="#010101" d="M81.136,23.937l-4.826-4.826c-1.527-1.527-4.014-1.527-5.541,0l-2.068,2.07l-4.839,4.837l5.185,5.183
			l5.183,5.185l4.837-4.84l2.07-2.067C82.663,27.951,82.663,25.464,81.136,23.937z"/>
	</g>
	<g>
		<path d="M21.36,53.84c-0.616,0.168-1.078,0.393-1.387,0.678c-0.308,0.285-0.48,0.432-0.514,0.441l-0.373,0.045
			c-0.203,0.203-0.418,0.342-0.644,0.422c-0.227,0.08-0.543,0.334-0.949,0.764c-0.407,0.432-0.891,0.869-1.448,1.314
			c-0.56,0.443-0.827,0.709-0.805,0.793c0.812-0.328,1.62-0.795,2.431-1.398l1.709-1.012c0.221-0.133,0.369-0.246,0.444-0.34
			c0.076-0.094,0.234-0.238,0.476-0.432l0.328-0.418c0.075-0.057,0.245-0.176,0.508-0.357s0.381-0.322,0.354-0.426
			C21.472,53.848,21.428,53.822,21.36,53.84z"/>
		<path d="M29.729,63.932c0-0.002,0.004-0.002,0.006-0.004l1.637-5.609c1.204-4.119,2.654-7.951,3.224-8.52
			c0.567-0.568,3.515-3.516,6.548-6.549l19.988-19.989c0.002-0.002,0.002-0.002,0.002-0.002c1.263-1.261,3.021-3.021,4.824-4.824
			l2.068-2.067c1.664-1.664,3.906-2.383,6.096-2.221V3.958c0-2.16-1.757-3.918-3.918-3.918H3.917c-2.16,0-3.918,1.758-3.918,3.918
			v74.085c0,2.16,1.758,3.918,3.918,3.918h66.286c2.161,0,3.918-1.758,3.918-3.918V41.979L56.996,59.104
			c-3.033,3.033-5.98,5.98-6.548,6.549c-0.569,0.568-4.401,2.02-8.52,3.223l-7.432,2.17c-0.006,0.002-0.01,0.002-0.015,0.004
			c-0.828,0.242-1.858,0.543-2.963,0.867c-1.241,0.361-2.221,0.184-2.8-0.395c-0.578-0.578-0.754-1.553-0.393-2.789
			C29.049,66.258,29.681,64.096,29.729,63.932z M26.095,52.449l-0.305,0.193c-0.583,0.486-0.933,0.852-1.051,1.092
			c-0.117,0.244-0.276,0.465-0.479,0.666l-0.102,0.029c-0.393,0.105-0.784,0.486-1.175,1.143c-0.012,0.094-0.345,0.334-0.999,0.723
			c-0.655,0.387-1.251,0.873-1.789,1.459c-0.382,0.213-0.848,0.486-1.398,0.818c-0.552,0.332-0.959,0.551-1.222,0.66L15.888,60.1
			c-0.374,0.176-0.798,0.4-1.272,0.676c-0.336-0.02-0.613,0-0.835,0.061l-0.447,0.176c-0.068,0.018-0.191-0.012-0.369-0.094
			c-0.177-0.08-0.4-0.143-0.669-0.188c-0.27-0.047-0.468-0.311-0.598-0.787c-0.115-0.428,0.24-0.975,1.066-1.648
			c0.826-0.672,1.361-1.133,1.606-1.383c0.085-0.223,0.29-0.396,0.614-0.523c0.323-0.123,0.581-0.303,0.774-0.539
			c0.193-0.234,0.519-0.486,0.977-0.758l0.88-0.816c0.042-0.047,0.08-0.076,0.113-0.084l0.359-0.098
			c0.119-0.033,0.273-0.174,0.461-0.428c0.189-0.252,0.4-0.455,0.634-0.609l0.307-0.084c0.034-0.01,0.073-0.064,0.118-0.17
			c0.046-0.104,0.17-0.256,0.372-0.457l0.063-0.072l0.256-0.068c0.146-0.205,0.334-0.393,0.563-0.564
			c0.228-0.172,0.438-0.375,0.631-0.611l1.791-1.307l0.475-0.074c0.103-0.027,0.213-0.145,0.331-0.352
			c0.118-0.205,0.454-0.475,1.005-0.807c0.049-0.16,0.184-0.371,0.407-0.633c0.222-0.262,0.473-0.621,0.751-1.082l0.406-0.633
			l0.066-0.566l0.465-0.924c0.19-0.654,0.381-1.064,0.576-1.225c-0.003-0.146,0.014-0.289,0.05-0.428
			c0.035-0.137,0.036-0.34,0.001-0.604l0.119-0.471c0.05-0.087,0.07-0.147,0.062-0.181c-0.009-0.035-0.105-0.119-0.288-0.253
			l-0.273-0.502c-0.037-0.137-0.611-0.468-1.725-0.989l-0.205,0.056l-2.087-0.397l-0.172-0.229l-0.219,0.004L22.8,39.606
			l-0.052,0.014l-0.939-0.02c-0.752,0.002-1.252-0.019-1.502-0.061c-0.024,0.042-0.07,0.073-0.139,0.092l-1.088,0.047
			c-0.309,0.012-0.503-0.015-0.584-0.075c-0.081-0.06-0.247-0.098-0.497-0.112c-0.252-0.015-0.421-0.047-0.508-0.096
			c-0.087-0.05-0.233-0.047-0.438,0.008l-0.6,0.327c-0.014-0.051-0.275-0.071-0.786-0.062c-0.115-0.151-0.189-0.224-0.223-0.215
			l-0.715,0.304c-0.561-0.104-0.849-0.155-0.866-0.15c-0.086,0.023-0.397,0.058-0.935,0.101c-0.537,0.046-0.896,0.037-1.078-0.023
			c-0.181-0.061-0.439-0.101-0.773-0.12l-0.195-0.112c-0.044-0.025-0.146-0.033-0.31-0.025l-0.461,0.125
			c-0.102,0.027-0.267-0.021-0.491-0.143c-0.225-0.121-0.502-0.23-0.83-0.325c-0.328-0.094-0.648-0.296-0.96-0.604
			c-0.313-0.31-0.528-0.649-0.647-1.02c-0.043-0.025-0.069-0.055-0.078-0.089l-0.068-0.861c-0.128-1.082,0.098-2.177,0.676-3.287
			c0.013-0.497,0.204-0.905,0.574-1.227l0.007-0.386c0.379-0.561,0.641-0.997,0.784-1.312c0.145-0.313,0.331-0.588,0.561-0.824
			c0.229-0.235,0.402-0.442,0.519-0.62l0.408-0.331c-0.06-0.148,0.224-0.614,0.847-1.396c0.624-0.783,1.129-1.322,1.516-1.618
			c0.387-0.298,0.641-0.508,0.763-0.633c0.122-0.124,0.509-0.366,1.163-0.727c0.046-0.508,0.256-0.811,0.633-0.912l0.383-0.104
			l0.374-0.65l0.705-0.136c0.024-0.043,0.089-0.176,0.194-0.396c0.105-0.223,0.337-0.38,0.695-0.478l2.841-1.785l0.204-0.056
			l0.219-0.003c0.137-0.037,0.279-0.204,0.428-0.501s0.394-0.491,0.735-0.583c0.067-0.019,0.214,0.014,0.438,0.1
			c0.01,0.035,0.031,0.047,0.065,0.037l0.61-0.384l0.808-0.163l0.929-0.526c0.631-0.171,1.228-0.167,1.789,0.011l0.023-0.117
			l-0.042-0.153c-0.078-0.289,0.044-0.479,0.368-0.566c0.137-0.036,0.23-0.025,0.283,0.032l0.356,0.097l0.179-0.048
			c0.034-0.01,0.284,0.033,0.748,0.126c0.211-0.239,0.35-0.368,0.418-0.386c0.324-0.088,0.617-0.021,0.879,0.201l0.421-0.169
			c0.099-0.173,0.166-0.265,0.2-0.274c0.103-0.027,0.276,0.072,0.521,0.299l0.168,0.009l0.64-0.173
			c0.033-0.009,0.116,0.023,0.246,0.099l0.344,0.154c0.174,0.101,0.298,0.185,0.371,0.256c0.074,0.072,0.155,0.134,0.242,0.183
			c0.393-0.308,0.605-0.467,0.641-0.476c0.17-0.046,0.337,0.063,0.502,0.332c0.064,0.238,0.277,0.432,0.638,0.581
			c0.361,0.15,0.576,0.353,0.646,0.608c0.421,0.069,0.683,0.292,0.784,0.667l0.826,1.123l0.015,0.462
			c0.211,0.236,0.321,0.372,0.33,0.406l0.153,0.975l0.373,0.97c0.144,0.529,0.018,1.049-0.375,1.558
			c-0.103,0.027-0.249,0.146-0.44,0.353c-0.191,0.208-0.304,0.316-0.338,0.325c-0.443,0.12-0.768,0.094-0.969-0.08
			c-0.203-0.174-0.387-0.295-0.551-0.36c-0.165-0.064-0.27-0.184-0.315-0.354c-0.106-0.393,0.054-0.849,0.481-1.366
			c0.238-0.064,0.389-0.188,0.449-0.369c-0.097-0.358-0.241-0.586-0.432-0.681s-0.407-0.237-0.651-0.428
			c-0.243-0.189-0.487-0.33-0.731-0.42s-0.46-0.229-0.647-0.415c-0.188-0.188-0.334-0.268-0.436-0.239l-0.345,0.148l-0.784,0.048
			c-0.813,0.108-1.577,0.124-2.296,0.043l-0.512,0.139l-1.437,0.169c-0.212,0.167-0.539,0.311-0.983,0.431l-1.619,0.714
			l-0.705,0.135c-0.051,0.014-0.481,0.286-1.291,0.816l-0.241,0.12l-0.691,0.188c-0.034,0.009-0.228,0.154-0.583,0.433
			c-0.355,0.279-0.659,0.49-0.914,0.632l-0.202,0.165c-0.025,0.043-0.072,0.074-0.14,0.093l-0.424,0.06l-1.955,1.71l-0.414-0.107
			c-0.326-0.058-0.507-0.083-0.541-0.073c-0.238,0.064-0.326,0.217-0.261,0.455l0.08,0.5c-0.185,0.197-0.303,0.338-0.353,0.425
			s-0.121,0.16-0.215,0.223l-0.307,0.083c-0.205,0.056-0.372,0.197-0.503,0.424c-0.131,0.229-0.262,0.37-0.394,0.424
			c-0.133,0.055-0.308,0.184-0.526,0.39c-0.017,0.077-0.134,0.183-0.354,0.314c-0.221,0.134-0.361,0.341-0.422,0.624
			c-0.062,0.281-0.178,0.445-0.348,0.491l-0.539,0.037l-0.144,0.588c-0.335,0.183-0.526,0.289-0.572,0.319
			c-0.144,0.351-0.306,0.633-0.485,0.846c-0.181,0.214-0.354,0.438-0.519,0.675c-0.165,0.237-0.269,0.463-0.312,0.676
			s-0.144,0.4-0.301,0.563c-0.158,0.162-0.259,0.432-0.303,0.81l-0.187,0.324c-0.33,0.475-0.439,0.916-0.329,1.326
			c0.079,0.29,0.342,0.447,0.788,0.473c0.446,0.026,0.732,0.067,0.858,0.126c0.125,0.058,0.29,0.058,0.494,0.002
			c0.205-0.056,0.413-0.064,0.624-0.03c0.21,0.035,0.563,0.086,1.058,0.154c0.159,0.249,0.281,0.362,0.366,0.34
			c0.035-0.01,0.085-0.097,0.15-0.261c0.064-0.164,0.2-0.273,0.405-0.329c0.221-0.06,0.472,0.02,0.75,0.236l0.163-0.209l0.102-0.028
			l0.361,0.013l0.051-0.014l0.266-0.236c0.024-0.044,0.071-0.075,0.139-0.094c0.052-0.014,0.339,0.001,0.863,0.042l0.051-0.014
			c0.034-0.009,0.161-0.08,0.382-0.214c0.274,0,0.433,0.012,0.477,0.036l0.414,0.108c0.014,0.051,0.055,0.067,0.123,0.049
			c0.067-0.019,0.159-0.084,0.275-0.199c0.115-0.113,0.233-0.186,0.353-0.218c0.137-0.036,0.315,0.015,0.537,0.156
			c0.24-0.192,0.378-0.294,0.411-0.304c0.154-0.041,0.453,0.015,0.897,0.169l0.514-0.028l0.563-0.152l0.885-0.075
			c0.309,0.192,0.609,0.321,0.901,0.388c-0.016-0.195,0.077-0.322,0.282-0.378c0.273-0.074,0.721-0.075,1.344-0.007l0.219-0.004
			l0.246,0.098c0.271-0.146,0.441-0.229,0.51-0.248c0.341-0.092,0.544-0.019,0.609,0.221c0.055,0.204,0.075,0.484,0.061,0.835
			c0.033-0.009,0.095,0.011,0.182,0.061c0.057-0.125,0.132-0.219,0.227-0.281l0.346-0.341c0.05-0.087,0.092-0.134,0.126-0.143
			c0.392-0.106,1.021,0.016,1.885,0.368c0.864,0.352,1.442,0.864,1.734,1.536c0.056,0.204,0.188,0.424,0.398,0.66l-0.013,0.361
			l0.162,0.396c0.01,0.035,0.008,0.162-0.005,0.386l0.053,0.398c-0.017,0.077-0.052,0.15-0.104,0.221
			c-0.055,0.069-0.09,0.144-0.105,0.22l0.271,0.394l0.027,0.104c0.019,0.067-0.021,0.18-0.115,0.333
			c-0.097,0.153-0.147,0.288-0.153,0.399c-0.007,0.111-0.038,0.232-0.093,0.367c-0.057,0.135-0.079,0.283-0.072,0.445
			c0.008,0.164-0.111,0.385-0.357,0.66c-0.245,0.277-0.354,0.467-0.326,0.57c0.027,0.102,0.075,0.143,0.144,0.125
			c0.204-0.057,0.396-0.211,0.572-0.471s0.321-0.422,0.431-0.486c0.11-0.066,0.287-0.225,0.531-0.475l2.098-1.776
			c1.559-1.338,2.439-2.033,2.644-2.089c0.273-0.073,0.446,0.026,0.521,0.299c0.027,0.103-0.039,0.331-0.199,0.686
			c0.183,0.812-0.039,1.375-0.668,1.691c-0.21,0.24-0.358,0.472-0.443,0.697l-0.205,0.055c-0.297,0.594-0.719,0.965-1.265,1.111
			l-0.153,0.041c-0.461,0.803-1.134,1.361-2.019,1.674c-0.437,0.758-0.851,1.191-1.243,1.297l-0.382,0.213
			c-0.38,0.287-0.655,0.453-0.826,0.5c-0.034,0.008-0.084,0.096-0.149,0.258l-0.308,0.387c-0.306,0.156-0.604,0.439-0.896,0.846
			c-0.293,0.41-0.531,0.664-0.716,0.758c-0.186,0.096-0.374,0.225-0.568,0.389C28.116,50.143,27.378,50.967,26.095,52.449z"/>
	</g>
</g>
</svg>
