<?xml version="1.0" encoding="utf-8"?>
<!-- Generator: Adobe Illustrator 16.0.0, SVG Export Plug-In . SVG Version: 6.00 Build 0)  -->
<!DOCTYPE svg PUBLIC "-//W3C//DTD SVG 1.1//EN" "http://www.w3.org/Graphics/SVG/1.1/DTD/svg11.dtd">
<svg version="1.1" id="레이어_1" xmlns="http://www.w3.org/2000/svg" xmlns:xlink="http://www.w3.org/1999/xlink" x="0px"
	 y="0px" width="42.496px" height="34.544px" viewBox="0 0 42.496 34.544" enable-background="new 0 0 42.496 34.544"
	 xml:space="preserve">
<path fill="#BDE4F5" d="M27.892,4.237H16.088c-1.503,0-2.708,1.227-2.708,2.729v9.252c0,1.504,1.205,2.708,2.708,2.708h11.804V4.237
	L27.892,4.237z"/>
<path d="M27.892,4H16.088c-1.625,0-2.946,1.33-2.946,2.966v9.252c0,1.625,1.321,2.947,2.946,2.947h12.041V4H27.892L27.892,4z
	 M13.616,16.218V6.966c0-1.373,1.109-2.49,2.472-2.49c0,0,11.106,0,11.563,0c0,0.453,0,13.758,0,14.213c-0.457,0-11.563,0-11.563,0
	C14.726,18.688,13.616,17.58,13.616,16.218L13.616,16.218z"/>
<linearGradient id="SVGID_1_" gradientUnits="userSpaceOnUse" x1="32.6221" y1="9.4941" x2="32.6221" y2="4.567">
	<stop  offset="0" style="stop-color:#FBEC49"/>
	<stop  offset="1" style="stop-color:#EE9921"/>
</linearGradient>
<path fill="url(#SVGID_1_)" d="M27.985,9.733h7.611c0.91,0,1.662-0.731,1.662-1.642c0-0.909-0.752-1.659-1.662-1.659h-7.611V9.733
	L27.985,9.733z"/>
<path d="M27.985,6.194h-0.237v3.777h7.849c1.047,0,1.899-0.844,1.899-1.88c0-1.047-0.853-1.897-1.899-1.897H27.985L27.985,6.194z
	 M35.597,6.67c0.785,0,1.424,0.638,1.424,1.422c0,0.774-0.639,1.403-1.424,1.403c0,0-6.927,0-7.373,0c0-0.379,0-2.447,0-2.826
	C28.67,6.67,35.597,6.67,35.597,6.67L35.597,6.67z"/>
<linearGradient id="SVGID_2_" gradientUnits="userSpaceOnUse" x1="32.6221" y1="17.0059" x2="32.6221" y2="12.1094">
	<stop  offset="0" style="stop-color:#FBEC49"/>
	<stop  offset="1" style="stop-color:#EE9921"/>
</linearGradient>
<path fill="url(#SVGID_2_)" d="M27.985,17.246h7.611c0.91,0,1.662-0.731,1.662-1.642s-0.752-1.641-1.662-1.641h-7.611V17.246
	L27.985,17.246z"/>
<path d="M27.985,13.728h-0.237v3.758h7.849c1.047,0,1.899-0.844,1.899-1.881c0-1.035-0.853-1.877-1.899-1.877H27.985L27.985,13.728z
	 M35.597,14.202c0.785,0,1.424,0.629,1.424,1.402s-0.639,1.402-1.424,1.402c0,0-6.927,0-7.373,0c0-0.377,0-2.428,0-2.807
	C28.67,14.202,35.597,14.202,35.597,14.202L35.597,14.202z"/>
<path d="M36.153,30.669H8.853C5.63,30.669,3,28.06,3,24.836v-9.132c0-3.221,2.629-5.832,5.853-5.832h4.25v3.025H8.536
	c-1.502,0-2.708,1.226-2.708,2.728v9.707c0,1.522,1.206,2.728,2.708,2.728h28.685v1.543C37.22,29.603,37.122,30.571,36.153,30.669
	L36.153,30.669z"/>
<linearGradient id="SVGID_3_" gradientUnits="userSpaceOnUse" x1="20.6235" y1="13.2012" x2="20.6235" y2="7.5146">
	<stop  offset="0" style="stop-color:#FBEC49"/>
	<stop  offset="1" style="stop-color:#EE9921"/>
</linearGradient>
<path fill="url(#SVGID_3_)" d="M22.528,11.575c0-1.053-0.853-1.906-1.904-1.906c-1.053,0-1.905,0.854-1.905,1.906
	c0,1.051,0.853,1.904,1.905,1.904C21.676,13.479,22.528,12.626,22.528,11.575L22.528,11.575z"/>
<path d="M18.481,11.575c0,1.182,0.961,2.143,2.144,2.143s2.144-0.961,2.144-2.143s-0.961-2.145-2.144-2.145
	S18.481,10.394,18.481,11.575L18.481,11.575z M18.958,11.575c0-0.92,0.748-1.668,1.667-1.668s1.667,0.748,1.667,1.668
	c0,0.919-0.748,1.666-1.667,1.666C19.705,13.241,18.958,12.494,18.958,11.575L18.958,11.575z"/>
</svg>
