<?xml version="1.0" encoding="utf-8"?>
<!-- Generator: Adobe Illustrator 16.0.0, SVG Export Plug-In . SVG Version: 6.00 Build 0)  -->
<!DOCTYPE svg PUBLIC "-//W3C//DTD SVG 1.1//EN" "http://www.w3.org/Graphics/SVG/1.1/DTD/svg11.dtd">
<svg version="1.1" id="레이어_1" xmlns="http://www.w3.org/2000/svg" xmlns:xlink="http://www.w3.org/1999/xlink" x="0px"
	 y="0px" width="23.762px" height="27.119px" viewBox="0 0 23.762 27.119" enable-background="new 0 0 23.762 27.119"
	 xml:space="preserve">
<linearGradient id="SVGID_1_" gradientUnits="userSpaceOnUse" x1="11.8813" y1="41.1289" x2="11.8813" y2="-10.4771">
	<stop  offset="0" style="stop-color:#666464"/>
	<stop  offset="0.5" style="stop-color:#444140"/>
	<stop  offset="0.5" style="stop-color:#5F5E5E"/>
	<stop  offset="1" style="stop-color:#535151"/>
</linearGradient>
<path fill="url(#SVGID_1_)" d="M15.193,3.829v3.559c3.061,1.292,5.207,4.32,5.207,7.85c0,4.704-3.814,8.519-8.52,8.519
	s-8.52-3.814-8.52-8.519c0-3.53,2.146-6.558,5.205-7.85V3.829C3.617,5.264,0,9.827,0,15.239c0,6.562,5.318,11.88,11.881,11.88
	s11.881-5.318,11.881-11.88C23.762,9.827,20.143,5.264,15.193,3.829z"/>
<linearGradient id="SVGID_2_" gradientUnits="userSpaceOnUse" x1="11.8813" y1="17.8887" x2="11.8813" y2="-6.8605">
	<stop  offset="0" style="stop-color:#666464"/>
	<stop  offset="0.5" style="stop-color:#444140"/>
	<stop  offset="0.5" style="stop-color:#5F5E5E"/>
	<stop  offset="1" style="stop-color:#535151"/>
</linearGradient>
<rect x="10.082" fill="url(#SVGID_2_)" width="3.598" height="11.169"/>
</svg>
