<?xml version="1.0" encoding="utf-8"?>
<!-- Generator: Adobe Illustrator 16.0.0, SVG Export Plug-In . SVG Version: 6.00 Build 0)  -->
<!DOCTYPE svg PUBLIC "-//W3C//DTD SVG 1.1//EN" "http://www.w3.org/Graphics/SVG/1.1/DTD/svg11.dtd">
<svg version="1.1" id="레이어_1" xmlns="http://www.w3.org/2000/svg" xmlns:xlink="http://www.w3.org/1999/xlink" x="0px"
	 y="0px" width="28.039px" height="28.041px" viewBox="0 0 28.039 28.041" enable-background="new 0 0 28.039 28.041"
	 xml:space="preserve">
<path fill="#666464" d="M14.02,3.612c5.739,0,10.408,4.67,10.408,10.409S19.759,24.43,14.02,24.43
	c-5.738,0-10.408-4.67-10.408-10.409S8.281,3.612,14.02,3.612z M0,14.021c0,7.729,6.289,14.02,14.02,14.02s14.02-6.289,14.02-14.02
	S21.75,0,14.02,0S0,6.29,0,14.021z"/>
<path fill="#666464" d="M18.924,14.733c0,2.704-2.199,4.906-4.902,4.906c-2.705,0-4.904-2.202-4.904-4.906H6.709
	c0,4.033,3.279,7.312,7.313,7.312c4.03,0,7.311-3.277,7.311-7.312H18.924z"/>
<circle fill="#666464" cx="9.38" cy="10.809" r="2.408"/>
<circle fill="#666464" cx="18.609" cy="10.809" r="2.407"/>
</svg>
