<svg xmlns="http://www.w3.org/2000/svg" viewBox="0 0 30 30"><path d="M29.6 14.2c-.1-.1-.3-.1-.2.1.1.1.1.2.1.3-.1-.1-.3-.1-.3.1-.8 3.8-3.2 7.2-6.7 8.8-2.6 1.3-6.1 1.3-8.4-.3-.5-.5-.8-1.1-1.2-1.7 3.1-.1 6.2-1.4 7.4-4.4.8-2-.1-4.6-2.4-5.1-2.5-.5-5.4 1-6.6 3.3-.8 1.5-1 3.1-.6 4.6-.4-.1-.8-.2-1.3-.4-2.2-.9-3.9-2.6-4.9-4.7-.7-1.3-1.3-2.9-1.4-4.4.1-1.4.5-2.8 1-4.2v.6c-.2.9-.3 1.7-.4 2.6 0 .2.3.2.3 0v-.1l.1.1v.1c0 .2.4.2.4 0 .2-1.3.3-2.6.4-4 .1-.5.2-.9.3-1.3 0-.2-.1-.3-.3-.3-1.6 1-3.2 2.2-4.6 3.4-.1.1-.1.2-.1.3H0c-.1.2.1.4.3.2l.1-.1h.1c.1 0 .2-.1.3-.1-.1.2-.3.4-.5.7-.2.2 0 .5.2.3 1-.8 1.9-1.6 2.8-2.4C.7 10.6 2 16.9 6.1 19.8c1.3.9 3 1.5 4.8 1.7 1.3 2.4 4 4.3 6.8 4.5 3.2.3 6.3-1.2 8.5-3.3 2.4-2.1 4.8-5.3 3.4-8.5zm-.1.9c.2 1 0 2-.3 3 .2-.7.3-1.4.3-2.2 0-.1 0-.1-.1-.1 0-.3.1-.5.1-.7zm-.6 2.2c-.5 2.4-2.2 4.3-4.2 5.6 1.8-1.4 3.3-3.4 4.2-5.6zm-17.7 2.8h-.1c-.1-.6-.2-1.3-.1-1.9v-.1c0 .2.1.4.1.6-.1.4-.1.9.1 1.4zm2.3-6.1c-.6.6-1.2 1.2-1.5 1.7-.1.1-.2.3-.3.5.2-.9.9-1.6 1.8-2.2zm.8.1c.7-.6 1.6-1.1 2.6-1.3.2 0 .3.1.6.1 1 .5 1.6 1.7 1.6 2.8-.1 2-1.9 3.4-3.8 4-1 .3-2.2.3-3.3.3l-.3-.6c-.1-.2-.1-.4-.2-.7-.1-1.8 1.2-3.5 2.8-4.6zM12.4 21c-.1-.1-.1-.3-.2-.4 1 .1 1.9-.1 2.8-.3 1.2-.3 2.2-.7 3.1-1.3-1.5 1.4-3.6 2-5.7 2zm7-4.8c0 .1-.1.3-.1.3.1-.1.1-.3.1-.5.1-1-.2-2.2-.9-2.9.9.8 1.2 2.1.9 3.1zM2.9 12.1c.2.8.5 1.6.8 2.3.9 2.1 2.2 3.9 4.2 5-.3-.1-.6-.3-.9-.4-3-1.4-4-4.1-4.1-6.9zm3.8 7.3c-.1 0-.1 0 0 0-.1 0 0 0 0 0 1 .5 2.4.9 4 1 .1.1.1.3.1.4-1.5-.1-2.9-.6-4.1-1.4zm4.6 1.6c-.1-.1-.1-.3-.1-.4h.1c0 .1.1.2 0 .4.1 0 .1 0 0 0zm.3.6h.1c.1.1.1.3.3.5.6.9 1.4 1.6 2.3 2.2.3.2.6.4.8.6-1.5-.8-2.8-1.9-3.5-3.3zm5.3 3.7c.3.1.6.1.9.1 2.2 0 4.6-.6 6.6-1.8-1.1.8-2.4 1.4-3.8 1.7-1.1.3-2.4.3-3.7 0z" fill="#e30613"/></svg>