<svg xmlns="http://www.w3.org/2000/svg" viewBox="0 0 30 30"><path d="M29.9 6.4c-2.1-1.9-4.3-3.6-6.3-5.6-.1-.1-.3-.1-.5 0-.5.4-1 .9-1.4 1.3-.1 0-.2.1-.3.3-5.7 5.4-10.3 11.7-13.7 18.8-.2-1.1-.6-2.2-1-3.3-.3-1.3-.7-2.6-1-3.9-.1-.3-.4-.3-.6-.1 0 .1-.1.2-.2.3-.1-.1-.3-.1-.3.1 0 .1-.1.3-.1.4-.3.3-.6.7-.9 1-.1 0-.2 0-.2.1v.1C2.4 17 1.2 18 0 19.1c-.1.1.1.4.2.3 1 1.4 2.1 2.9 3 4.4 0 .1.1.1.1.2.2.3.5.7.7 1 .6.8 1 1.6 1.5 2.4 0 .1 0 .1.1.1.1.1.1.1.1.2.3.4.5 1.4 1.1 1.4.1 0 .2-.1.3-.2v0c1.5-2.1 2.9-4.3 4.5-6.3 1.6-2.1 3.3-4 5.1-5.8s3.6-3.6 5.6-5.3c1-.8 2-1.7 3-2.4 1.1-.8 2.2-1.9 3.6-2.1.1 0 .2-.1.2-.2.1-.1.1 0 .3.1.4.2.8-.3.5-.5zm-5 1.8c0 .1.1.2.1.2-.1.1-.3.2-.4.3.1-.6.1-1.3.3-1.9v1.4zm.4-4.8c.2.1.3.3.6.5-.2-.1-.4.1-.4.3v1c-.1-.6-.1-1.2-.2-1.8zm1.2 1.2c-.1.4-.1.8-.2 1.2-.1-.6-.2-1.2-.3-1.7V4c.2.2.4.4.5.6 0-.1 0 0 0 0zm.4 1.6c.1.3.1.6.2.8-.1.1-.3.2-.5.3.1-.4.2-.7.3-1.1zm.4-1c.1 0 .1.1.2.1 0 .1-.1.2-.1.3 0-.1 0-.2-.1-.4zm-2.4-2.3c-.1.1-.1.1-.2.3-.1.8-.1 1.5-.3 2.2-.1-.9-.1-1.7-.2-2.6 0-.4-.6-.3-.6 0-.1.8-.2 1.7-.3 2.4V1.8c0-.1-.1-.1-.1-.2.1-.1.1-.1.2-.1.5.5 1 1 1.5 1.4zM8.2 21.2v-.1c.1-.2.3-.5.4-.7l-.3 2.3c0-.5 0-1-.1-1.5zm1.8-3.1c.3-.5.5-.9.8-1.3-.3 1.2-.4 2.4-.6 3.6 0-.8-.1-1.6-.2-2.3zm-.8 1.6c0-.1-.1-.1-.1-.1.1-.2.3-.4.3-.7-.1.8-.1 1.7-.3 2.5.1-.6.1-1.1.1-1.7zm-.4 2.8c0 .8.1 1.7.1 2.5 0 .1.1.2.1.2-.3.3-.5.7-.8 1.1.2-1.3.4-2.6.6-3.8zm.9-1.8c.1 1 .1 2.1.2 3.2-.2.3-.4.6-.7.9.3-1.4.4-2.8.5-4.1zm1.1-1.7c.1 1 .1 2.1.3 3.2 0 .1 0 .1.1.1-.2.3-.4.6-.7.9 0-1.5.1-2.9.3-4.2zm.5-2.8c0-.1-.1-.2-.1-.2.3-.5.6-.9.8-1.4-.3 1-.6 2.1-.7 3.2v-1.6zm1.4-2c0-.1-.1-.2-.2-.3.1-.3.3-.5.5-.8-.1.6-.1 1.1-.2 1.7-.1-.2-.1-.4-.1-.6zm.9-1.7c0-.1 0-.1 0 0 .1-.3.3-.5.4-.7l-.3 3.6c-.1-1-.1-1.9-.1-2.9zm-.5 2.8c.1 1.4.1 3 .1 4.4-.2.2-.3.4-.6.6.2-1.7.3-3.3.5-5zm1.1-.5c.1 1.2.1 2.4.1 3.6v.1c-.2.2-.3.4-.6.6.2-1.5.4-2.9.5-4.3zm1.3 2c0 .1.1.2.2.3l-.8.8c.1-1.8.2-3.5.5-5.3 0 1.4 0 2.7.1 4.2zm.4-7.1c0-.1-.1-.2-.1-.2.3-.3.5-.6.8-.9l-.6 3.9c-.1-1-.1-1.9-.1-2.8zm1.3 2.3c0-1.4 0-2.8-.1-4.2v-.1c.3-.3.6-.6.9-1-.2 1.8-.5 3.5-.8 5.3zm1.5-5.7c0-.1 0-.1-.1-.1l.2-.2c-.1.4-.1.9-.1 1.3v-1zm.5 2c.1 1.7 0 3.2-.1 4.9 0 .1.1.2.1.3l-.5.5c.1-1.9.3-3.8.5-5.7zm1 0l.1 4.1v.1c-.2.2-.4.4-.7.6l.6-4.8zm.5-4.1v-.1c.2-.2.5-.4.7-.7l-.6 4.8c0-1.3-.1-2.6-.1-4zm1.4 3.7c0-1.7 0-3.4-.1-5.2.2-.2.5-.4.7-.6-.1 1.9-.3 3.9-.6 5.8zm-2-3.2c-.1 1-.3 2-.3 3-.1-.8-.1-1.6-.2-2.4 0-.2.3-.4.5-.6zM15.3 10c-.3 1.2-.5 2.5-.7 3.8-.1-.9-.1-1.9-.1-2.8.1-.1.1-.1.1-.2.3-.3.5-.5.7-.8zM7.7 22.1c-.1 1.2-.3 2.4-.6 3.6l.3-3.5c.2-.1.3-.1.3-.1zm-.6-1c-.3 1.1-.6 2.3-.8 3.4.1-1.7.3-3.2.3-4.9.2.5.3 1 .5 1.5zm-1.5 5.3c-.1-.1-.1-.1-.1-.2l.1-.1c.1-1.2.2-2.4.4-3.6-.1 1.4-.2 2.7-.3 4.1l-.1-.2zm-.9-2.3c.1-1.4.3-2.8.5-4.1 0 1.9-.1 3.7-.1 5.6-.3-.4-.6-.8-.8-1.2.1-.1.4-.1.4-.3zm1.5-6c-.3 1.2-.5 2.3-.7 3.5 0-1.9.1-3.8.1-5.6.2.7.4 1.5.6 2.1zm-.9-3.4c.1.1.1.3.1.4-.1 0-.2.1-.2.2-.1.5-.1 1-.1 1.4 0-.6 0-1.2.1-1.8-.1 0 0-.1.1-.2zm-.9 1c-.2 1.4-.4 2.9-.6 4.4 0-1.2.1-2.5.1-3.8.1-.2.3-.4.5-.6zm-1.1 1.1c-.1 1.2-.3 2.3-.5 3.4-.1-.8-.1-1.6-.2-2.4 0-.1-.1-.2-.2-.1l.9-.9zm-1.6 3.7c-.1-.6-.3-1.2-.3-1.9 0-.1 0-.1-.1-.1.3-.3.6-.6 1-.8-.2 1-.4 1.9-.6 2.8zm-.3-.4l-.2-.2c.1-.1.1-.3.1-.4 0 .2.1.4.1.6zm1-1.1c.1.9.1 1.8.1 2.7-.2-.2-.4-.5-.6-.8.1-.6.3-1.3.5-1.9zm-1.3-.3c-.1.3-.1.6-.2 1-.1-.1-.3-.3-.4-.5.2-.2.4-.3.6-.5zm1.8 3.6s0-.1 0 0c.1-1 .3-2 .5-3 0 1.2-.1 2.3-.1 3.5-.1-.2-.2-.3-.4-.5zM4 23.8c-.1-.1-.1-.2-.2-.3.2-1.7.5-3.3.7-5-.1 1.9-.2 3.6-.3 5.5v.1c-.1-.1-.2-.2-.2-.3zm2.1 3.4c.2-1 .5-1.9.7-2.9-.1 1.2-.3 2.3-.3 3.4 0-.1-.1-.1-.1-.1-.1-.1-.2-.2-.3-.4zm.8 1.3c-.1-.1-.1-.2-.2-.3.1 0 .2-.1.2-.1.4-1 .7-2.1.9-3.2 0 .8-.1 1.4-.1 2.2-.3.5-.6 1-.8 1.4zm4.7-6.7c-.1-2 .1-4 .7-6 .1 1.7.1 3.4 0 5.2-.3.2-.5.5-.7.8zm5-5.8l-.6.6c.1-2 .4-4 .7-6 0 1.5 0 3 .1 4.5 0 .2.2.3.3.3-.2.3-.3.5-.5.6zm.6-.7c.3-1.9.6-3.9.9-5.8 0 1.6 0 3.2-.1 4.7 0 .1 0 .1.1.1-.3.5-.6.8-.9 1zm3.7-3.4c.2-1.7.4-3.4.6-5.2v3.9c0 .3.5.4.6.1.3-1.1.5-2.2.7-3.3v2.2c0 .4.6.3.6 0 .1-1.2.3-2.5.5-3.8.1 1.2.1 2.3.1 3.4v.1c-.4.3-.9.7-1.3 1-.6.6-1.3 1.1-1.8 1.6zM25.6 8l.3-1.2c0 .3 0 .6.1.8v.1c-.2.2-.3.3-.4.3zm2.2-1.4c.1-.2.2-.5.2-.7.1.1.1.2.1.3.1.2.3.2.5.1l.1.1c-.3 0-.6.1-.9.2z" fill="#e30613"/></svg>