<svg xmlns="http://www.w3.org/2000/svg" viewBox="0 0 30 30"><path d="M29 1.2c.1-.1 0 0 0 0zm-.2.2s.1-.1 0 0zm.4-.3c0-.1-.1 0 0 0zm-.2.2c-.1 0 0-.1 0 0zm0 0s.1 0 0 0zm.3-.7c.1-.1 0 0 0 0zm-.7 1c.1-.1 0 0 0 0zm.8-1s0 .1 0 0c0 .1 0 0 0 0zm0 .1s0-.1 0 0c0-.1 0 0 0 0zm-10.6 9.8s.1-.1 0 0c.1-.1 0 0 0 0zm.1-.1s.1-.1 0 0c.1-.1 0 0 0 0zm-.3.3zm.5-.5c0-.1-.1 0 0 0zm-.7.7zm-.1.2c0-.1 0-.1 0 0 0-.1 0 0 0 0zm-1.7 1.6zm1.9-1.9c.1-.1 0 0 0 0zM29.2.7c.1-.1.2-.2 0 0zM16.6 12.9c0-.1 0-.2 0 0zM1.1 28.7c-.2.1 0 .1 0 0zM28.4 1.3c.1 0 .2-.1 0 0zm-12.6 9.5c.2-.1.2-.2 0 0zm11.6-9.5s0-.1 0 0zM.6 29.1c-.2.4-.1.3 0 0zm0 0c0-.1.2-.2.1-.2 0 .1-.1.2-.1.2zM27.4 1.3c-.1.1-.1.1 0 0zM2.9 29.5s.1 0 0 0c.3-.3.1-.2 0 0zm16.3-19.4c0-.1 0 0 0 0zM26 .5c.1 0 .2-.2 0 0zM19.3 10c0-.1 0 0 0 0zm.6-.6zm7.7-7.6c.1 0 .2-.2 0 0zm-8.9 8.8c.2-.2 0 0 0 0zm-1.8 1.9c-.1 0-.2.2 0 0zM.8 29c.2-.2 0-.2 0 0zM18 11.3c.1 0 .2-.2 0 0zm-.1.1c-.1.1 0 0 0 0zm.1-.1l-.2.2c.2-.1.2-.1.2-.2zm-.2-2.5l-.2.2c0-.1.1-.2.2-.2zm-.8.7c-.1.1 0 .1 0 0zm-.1.1l-.2.2c.1 0 .2-.1.2-.2zm-.3.4l-.2.2c.1 0 .1-.2.2-.2zm1-1.1c-.1.1 0 .1 0 0zm-.4.5c-.1.1-.1 0 0 0zm.3-.4l-.2.2c.1 0 .1-.1.2-.2zm-.2.2l-.3.3c.2-.1.3-.2.3-.3zm-.5.6l-.3.3.3-.3zm-.4.4c-.1 0-.1.2 0 0zM3 28.5zm-2-.9c-.1.1 0 0 0 0zm.9-.5c-.1 0-.1 0 0 0-.1 0 0-.1 0 0zM24.2 5s.1-.1 0 0c.1-.1 0 0 0 0zm-8 5.4s.1-.1 0 0c.1-.1 0 0 0 0zm2.1-2.2s.1-.1 0 0c.1-.1 0 0 0 0zm7.4-4.7s.1-.1 0 0c0-.1 0 0 0 0zm-8.2 8.3s.1-.2.2-.2c0-.1.1-.1.1-.2-.1.1-.3.3-.3.4-.1.1 0 0 0 0zm-.1.2l-.2.2c.1-.2.1-.2.2-.2zm10-10.7c.1-.1 0 0 0 0zm-8 8.5c0 .1 0 .1 0 0zm5.1-5.1s-.1.1 0 0zm-.2.2s.1-.1 0 0c.1-.1 0 0 0 0zm3.2-3.7c.1-.1 0 0 0 0zm-9.3 7.1s.1-.2 0 0zm-.2.3c-.1.1 0 .1 0 0zm.2-.3c-.1.1-.2.2-.2.3 0-.1.1-.2.2-.3zM26.7.6s.1-.1 0 0c.1-.1 0 0 0 0zm-8.8 8.1c-.1.1-.1 0 0 0zm-4.6.8c-.1-.1 0 0 0 0zM1 .4zm11.9 8.8s-.1-.2-.2-.2l.2.2zm14.3 20.3s.1 0 0 0c0-.1-.2-.2 0 0zM12.8 9c-.1 0-.1 0 0 0zm.4.4l-.3-.3c.1.2.2.3.3.3zm15.9 19.4s.2.1 0 0zm.4.5c.1.2.3.2 0 0zM3.6.4c-.1 0 0 .1 0 0 0 .1 0 0 0 0zm25.8 28.7c0-.1-.2-.3 0 0zm.1.2s-.1-.1-.1-.2c0 0 0 .1.1.2zM13.9 10.1c.1.3 0 .1 0 0zm-.1-.1l-.3-.3c.1.2.2.3.3.3zm-.3-.2s-.1-.2-.2-.2l.2.2zm.4.3s-.1-.2-.2-.2c.1.1.2.3.2.2zm-.6-.5zm.7.7s0 .1 0 0c0 .1 0 0 0 0zm-1.6-1.7l-.3-.3.3.3zm.2.3s-.1-.2-.2-.2c.2.1.2.2.2.2zm-.7-.8s0 .1 0 0c.1.1 0 0 0 0zm.2.2c-.2-.2-.1 0 0 0zm.5.4c-.1 0 0 0 0 0zm-.1 0c-.1-.1 0 0 0 0zm2 2.1c-.2-.2-.1-.1 0 0zM6 4.8s-.1-.1 0 0c-.1-.1 0 0 0 0zm-.1-.1zM4.6 3.4c0-.1 0 0 0 0zm6.6 6.7c-.1-.1-.1 0 0 0zM6.1 4.9s-.1-.1 0 0c-.1-.1-.1 0 0 0zM1.3 1.1c.1.2 0 .1 0 0zm10 9.1c-.1-.1 0 0 0 0zM1 .6zm.2.4c0-.1 0 0 0 0zm.1.1zm0 .1s0 .1 0 0c0 .1 0 .1 0 0zm1.5-.1c-.1-.1 0 0 0 0zM12 11s-.1 0 0 0c-.1-.1 0 0 0 0zm1.6 1.7c-.1-.1 0 0 0 0zM1 .6c-.1 0 0 0 0 0zm10.3 9.7c0-.1 0 0 0 0zm17.9 17.4zM2.9 1.2c-.1-.1 0 0 0 0zm8.5 9.3c.1 0 0-.1 0 0 0-.1 0 0 0 0zm.3.2c-.1-.1 0 0 0 0zm.1.1c-.1-.1 0 0 0 0zm.1.1c0-.1 0 0 0 0zm.4.4s.1.2.2.2l-.2-.2zm-1.9-1.9c.1 0 .1 0 0 0 .1 0 0 0 0 0zm.5.5c.2.1 0 0 0 0zm.7.7c-.1-.1-.2-.2 0 0zm.8.8c.1.1 0 0 0 0zM1.5 1.3c-.1-.1 0 0 0 0zm10.8 10c-.2-.2-.1 0 0 0zM2.7 1.7c-.1-.2-.1 0 0 0zM1.2.6c-.1-.2 0 0 0 0zm.6.9s-.1-.1 0 0zm.1-.2c0-.2 0-.1 0 0zm9 8.6c-.1-.1 0 0 0 0zm1.8 1.9c-.1-.1-.2-.3-.3-.3 0 .1.1.1.1.2.1-.1.2.1.2.1zm14.6 16.9c-.1-.1 0 0 0 0zm1.1-1.5c-.1 0 0 0 0 0 0 .1 0 0 0 0zm1.6 1.7c.1.1 0-.1-.1-.2 0 0 .2.2.1.2l-.1-.2c-.3-.3-.5-.7-.8-1-.1-.1-.2-.3-.3-.3-.5-.7-1.1-1.4-1.7-2.2-3.2-3.9-6.9-8-10-11.5l.4-.4c3.1-3.2 6.1-6.3 9.2-9.4l1.7-1.7.3-.3c.1-.1.3-.2.2-.2 0 0-.3.3-.4.3-.3.3-.8.7-1.1 1.1-.3.3-.8.8-1.1 1l-.1.1c-.1.2-.1 0 0 0l.1-.1L29.5.9s.4-.3.4-.4l-.3.3c.1-.1.2-.1.3-.3-.2.2-.7.6-.3.3.1-.1.2-.2 0 0 0 .1-.1.2-.2.3l-.4.4s.1-.1 0-.1l-.2.2c-.1 0-.2.2-.3.3 0 0-.1 0-.1.1-.1 0-.3.2-.4.3-.3.3 0-.1.1-.2s.3-.4.7-.7c-.1 0-.2.2-.3.2-.1.1-.1.1 0 0-.1.1 0 .1-.2.2 0 0 .1-.1 0-.1 0 .1-.9 1-1 1.1-.2.2-.1.1.1-.2.3-.4 1.1-1.1 1.6-1.6.1 0 .1 0 .1-.1.1 0 .3-.3.1-.1l-.3.3s.8-.9.5-.6c-.2.2-.3.3-.6.5-.3.3.3-.3.2-.3-.1 0-.3.3-.3.3l-.3.3c0-.1.3-.3.3-.3l.3-.3c-.2.1-.5.5-.8.7l-.1.1-.4.4c.1-.1.4-.3.5-.5-2.2 2-4.6 4.6-6.9 6.9l-.2.2-.1.1-.1.1h.1c-.1.2-.1 0 0 0l.1-.1.1-.1.1-.1.2-.2c2.3-2.3 4.5-4.5 6.9-7 .3-.2.3-.3.4-.4s0 0 0-.1c-.1.2-.1 0 0-.1-.1 0-.5.5-.6.6-.2.2-.4.3-.5.5l-.4.4-.1.1c0 .1-.3.3-.4.5l.4-.4.5-.5-.4.4-.3.3s.1-.1 0-.1l-.6.6-3.9 3.9-.2.2-.1.1-.2.1v.1c-.1.2-.1 0 0 0v-.1l.1-.1.1-.1c.1 0 .1-.1.2-.1 1.2-1.3 2.5-2.5 3.7-3.8.3-.3.7-.7 1-1.1l-.6.6-.3.3-3.7 3.7c-.1.1-.3.2-.3.3l-.3.3s-.1.1 0 0c-.6.7-1.2 1.3-1.9 1.9v.1l.1-.1-.1.1s0 .1-.1.1c-.2.3.1-.1-.2.2 0 .1-.2.2 0 0l-.1.1c0 .1-.2.2 0 0l-.1.1s-.1.2-.1.1l-.1.1c-.2.3-.3.4-.5.6-.3.3-.7.8-1 1 0 0-.1.2-.2.2l-.1.1s-.1.2-.2.2c-.2.2-.2.2 0 0l-.3.3c.2-.1-.3.3-.4.5l.1-.1-.1.1c1-1 1.9-2 2.8-3C22 7.2 24.6 4.7 27 2.1l.6-.6c.3-.3-.1.1-.2.1l-1.7 1.7-.3.3c0-.1.4-.4.5-.5l1-1c.2-.2.3-.3.4-.5.1-.1-.1.1 0 0l.2-.2c-.1 0-.3.3-.4.4l-.4.4c-.1.2-.1 0 0 0 .4-.4.9-.9 1.3-1.4l-.3.3-.3.3c-.6.5.9-1 .4-.5-.1.1-.2.1-.3.2l-.2.2c.2-.3.7-.7.2-.4l-.4.4.3-.3h-.1l-.3.3s-.1 0-.1.1l-.2.2.4-.4c0-.1-.3.3-.4.4l-2.6 2.6c-.3.2-.8.7-.3.3l.3-.3-1.3 1.3c-.1.1-.2.3-.3.3-.2.2-.1 0 0 0 .1-.1.2-.3.3-.3.8-.9 2.1-2.1 3-3.1l1-1-.1.1c.1 0 .7-.7.7-.8l-.3.3H27c-.1.1-.4.5-.4.4l.3-.3c-.1 0-.3.3-.4.4l-.3.3c-.2.1-.6.6-1 1l-.3.3c0-.1.5-.6.7-.8.2-.3.4-.6.8-.9.2-.3.4-.4.5-.5-.1 0 .2-.3.2-.3s-.1 0-.2.1l-.3.3h-.1c-.1.1-.2.2-.2.3-.2.2-.4.4-.7.6-.1.1-.2.1-.2.1l-.1.1c-.1.2-.1 0 0 0l.1-.1.2-.2c.4-.4.8-.8 1.1-1.2 0 0 .1-.1.2-.3-.1.1-.2.2-.2.3l.3-.3-.3.3-.7.7c-.2.2.3-.3.4-.5 0 0 .2-.2.1-.2l-.3.3c-.1.1-.6.6-.7.6v-.2c.2-.2.9-1 .3-.4-.1.1-.4.3-.5.5-.2.2-.5.5-.6.5-.1.1 0 0 0 0 0-.1.5-.5.4-.5s-.4.6-.4.6c-.1.1 0 0 0 0 .2-.2.4-.4.7-.8.5-.5 0-.1-.2.1-.1.6-.3 1-.8 1.4l.1-.1c-.1 0-.3.2-.5.4-.4.3-1 .9-1.4 1.4-1.6 1.7-3 3-4.6 4.7l-1.1 1.1c-.5.5-1 1-1.6 1.7v-.1c.3-.3.7-.8 1-1.1 2.3-2.4 4.6-4.7 6.9-7l1-1c.1-.1.2-.3.3-.3.1-.3.2-.4.3-.4-.1.2-.1 0 0 0 .4-.4.9-1 1.4-1.4-.1 0-.4.4-.6.6s.2-.2.2-.3c.1-.1.2-.2.2-.3-2.8 2.8-5.7 5.7-8.5 8.6-.6.6-1.1 1.2-1.7 1.7 0 0-.1.2-.2.2l-.1.1s-.1.2-.2.2c0 0-.1.2-.2.2-.2.2-.1 0 0 0 0 0 .1-.2.2-.2 0 0 .1-.2.2-.2l.1-.1s.1-.2.2-.2c.6-.6 1.1-1.2 1.7-1.7 2-2.1 3.9-4 5.9-6.1.1 0 .6-.5.2-.1-1.2 1.2-2.4 2.5-3.7 3.8 0-.1 0-.2-.1-.1v.1s-.1.2-.2.2c0 0 0-.1 0 0 0 0-.1.1-.1.2l-.3.3c-.2.2-.4.4-.6.5l-.1.1c-.3.3-.9.9-1.3 1.4l-1.1 1.1c-.2.2-.5.5-.3.2l-.3.3-.3.3-.3-.3c-.1-.2-.3-.3-.3-.3.3.3-.1 0-.3-.2-.3-.4-.8-.8-1.1-1.1-.4-.4-1-1-1.3-1.4l-.2-.1-.5-.5-.3-.3c0-.1-.1-.1-.1-.2 0 0 0 .1 0 0-.1 0-.2-.2-.2-.2s-.1-.1 0-.1l-.1-.1-3.8-3.8.2.2c2 2.1 3.9 4.1 5.9 6.2l1.7 1.7.2.2.1.1.2.2.2.2c.1.1.2.2 0 0l-.2-.2-.2-.2-.1-.1-.2-.2-1.7-1.7C9.9 6.2 7.1 3.3 4.3.5l.3.3c.1 0 .3.3.2.2-.2-.3-.6-.7-.7-.7.4.5 1 1 1.4 1.5.1 0 .1.2 0 0 0 .1.2.3.3.3 0 .1.1.3.3.3.3.3.6.7 1 1 2.3 2.3 4.5 4.7 6.9 7.1.3.3.7.7 1 1.1v.1c-.5-.5-1-1.1-1.6-1.7-.4-.2-.7-.6-1.1-1-1.6-1.7-3-3.1-4.6-4.8L6.3 2.8c-.1-.2-.4-.3-.4-.4 0 0 .3.3.1.2-.3-.4-.7-.8-1-1.1-.3-.2-.8-.7-.3-.2.3.3.5.6.7.8 0 0 .1.1 0 0-.1 0-.6-.6-.7-.6 0 0 .4.4.4.5 0 0 .1.1 0 0 0 0-.4-.3-.6-.5 0-.2-.3-.4-.3-.6-.5-.4.2.3.4.4v.1L4 .8c0 .1-.3-.2-.3-.2l.1.2c.1 0 .6.6.4.4-.3-.4-.4-.5-.7-.8 0-.1-.3-.3-.3-.3s.4.5.3.3c0 0-.1-.1-.2-.1.1.1.2.2.2.3.4.3.8.9 1.2 1.2.1 0 .1.1.2.2H5c.1 0 .1.2 0 0h-.1c-.1 0-.1-.1-.2-.2-.2-.2-.5-.5-.7-.6-.1-.1-.1-.2-.1-.3 0 0-.1-.1-.2-.1-.1-.1-.2-.2-.3-.2S3.2.5 3.2.5l.3.3c.1.1.4.3.5.5.3.4.6.7.9.9.2.2.7.7.7.8l-.3-.3-1-1c-.1 0-.2-.1-.4-.3 0-.1-.3-.4-.3-.4l.3.3c0 .1-.3-.3-.5-.4h-.2L2.9.5s.6.7.6.8c0 0-.1 0-.1-.1.4.3.8.7 1.1 1 1 1 2.2 2.3 3 3.1l.3.3c.1.1.2.2 0 0-.1 0-.2-.1-.3-.3-.3-.3-.9-.8-1.2-1.3-.5-.5.2.3.3.5.4.4-.1-.1-.3-.2L3.7 1.7l-.5-.4c0 .1.3.3.4.4l-.1-.2c-.1-.1-.1 0-.1-.1s-.3-.3-.3-.4H3l.3.3-.4-.4c-.4-.3 0 .1.2.3.3.4-.2-.2-.2-.2-.1 0-.2-.1-.2-.2-.4-.4 1 1.2.5.5 0 .2-.2 0-.4-.2L2.5.8c.4.5.9 1 1.3 1.4.1 0 .1.2 0 0l-.4-.4c-.1-.1-.3-.4-.3-.4-.1 0 .1.2.1.2.1.1-.1-.1 0 0 0 .2.2.3.3.5l1 1c.1 0 .4.4.5.5l-.2-.3-1.7-1.7c-.1-.1-.6-.5-.2-.2.2.2.4.5.6.6 2.4 2.5 5 5 7.6 7.8.9 1 1.8 1.9 2.8 3l-.1-.1.1.1c-.2-.2-.6-.6-.4-.5-.1-.2-.3-.3-.3-.3.2.2.1.2 0 0l-.2-.2-.1-.1-.2-.2-1-1c-.2-.2-.3-.3-.5-.6l-.2-.1-.1-.1-.1-.1c.2.2 0 .1 0 0l-.1-.1c.2.2 0 .1 0 0-.2-.3.1.1-.2-.2l-.1-.1-.1-.1.1.1-.1-.1c-.4-.5-1.1-1.2-1.7-1.7.1.1 0 0 0 0-.1 0-.2-.2-.3-.3-.2-.1-.4-.3-.4-.4C6.6 5.4 5.3 4.1 4.1 3c-.1-.1-.2-.2-.3-.4-.2-.1-.9-.8-.6-.6l1 1c1.2 1.3 2.5 2.6 3.7 3.8.1.1.1.2.2.3l.1.1.1.1.1.1c.1 0 .1.2 0 0l-.1-.1-.1-.1-.1-.1c-.1 0-.1-.1-.2-.2-1.3-1.2-2.7-2.7-4-4-.1-.2-.3-.4-.5-.6v.1c-.1 0-.2-.2-.3-.3 0-.1-.3-.3-.4-.4.2.3.4.3.5.5.2.2.8.9.5.4-.2 0-.5-.3-.5-.3l-.1-.1-.4-.4c-.2-.2-.3-.4-.6-.6-.1-.1-.5-.6-.5-.6.1 0 .1.3 0 .1v.1c.2.1.3.2.3.3 2.3 2.4 4.5 4.6 6.8 7 .1 0 .1.1.2.2H9l.1.1.1.1c.1 0 .1.2 0 0l-.1-.1-.1-.1-.1-.1c-.1 0-.1-.1-.2-.2-2.2-2.1-4.6-4.7-6.8-6.7.1.1.5.4.6.5L2 1.3c-.1-.1-.1 0-.1-.1-.2-.1-.6-.6-.7-.6 0 .1.1.2.3.4l.3.3-.3-.3-.2-.3c-.1-.1.5.6.2.3L.9.4c-.3-.3.5.6.5.6S1.2.8 1.2.7c-.2-.1 0 .1 0 .2.1.1 0 .1.1.2.4.4 1.2 1.1 1.6 1.6.3.2.3.3.1.1-.2-.3-1-1.1-1-1.1v.1c-.1-.1 0-.1-.2-.2 0 0 0 .1 0 0-.1-.1-.2-.3-.3-.3.3.4.6.7.7.7.1.1.4.5.2.2-.1-.1-.3-.2-.4-.3l-.1-.1c-.1-.1-.2-.3-.3-.4-.1 0-.2-.2-.2-.2v.1c-.1 0-.2-.2-.4-.4C1 .9.8.8.7.7.5.5.7.6.7.7L.4.4l.3.3L.4.5c0 .1.3.4.4.4 1 1.1 2.3 2.3 3.1 3.2l.1.1c.1 0 .1.2 0 0l-.1-.1c-.3-.3-.7-.6-1.1-1-.3-.4-.8-.9-1.1-1.1l-.5-.4s.2.1.3.2c-.2-.1.1.2.3.3.6.6 1.2 1.3 1.6 1.8 3 3.1 6.1 6.2 9.1 9.5l.4.4C9.8 17.2 6 21.3 2.8 25.2c-.6.7-1.2 1.5-1.7 2.2-.1.1-.2.3-.3.3-.3.3-.5.6-.8 1v.1c-.1.1.1-.2.1-.1 0 0-.2.3-.1.2 0 0 .3-.3.3-.4s.2-.3.3-.3c-.3.3-.4.7 0 .3.1-.1.2-.3.3-.3.1-.2.2-.3.3-.4.1-.2.3-.3.5-.6.3-.3.5-.7.8-1 .4-.5 1-1.1 1.5-1.7.7-.9 1.6-1.9 2.4-2.9.5-.5 1-1.1 1.6-1.7.7-.8 1.5-1.6 2.2-2.3 1-1.1 2.1-2.3 3.1-3.4l.1.1c-.3.3-.5.6-.9 1-.8.8-1.5 1.7-2.3 2.5-.8.9-1.6 1.7-2.3 2.5-1.7 2-3.6 4.1-5.6 6.5-.3.3-.5.6-.7.9-.3.4-.8 1-1 1.2 0 .1-.1.2-.2.3 0 .1-.2.2-.1.1s.6-.8.8-1c.3-.3.5-.6.9-1.1 1.1-1.4 2.3-2.8 3.6-4.2l.4-.5c0 .1-.8 1-1 1.1-.3.4-.6.7-.9 1-.4.4-1 1-1.3 1.6-.9 1-1.4 1.7-2 2.5-.2 0-.3.2-.3.2s.3-.3.3-.2c0 0-.3.4-.3.5l.2-.2c.2-.3.3-.3 0 0 0-.1-.1.2-.1.2.1-.1.2-.3.3-.5.1-.1.1 0 .2-.2l.3-.4c0 .1-.3.3-.4.5s-.4.6-.2.3c.3-.1-.1.4-.1.4s.4-.6.5-.5l-.2.4v.2l.3-.1.3-.3c.1-.2.1-.1.2-.2.2-.2.8-1 1-1.2.1-.1.8-.9.3-.4-.2.3-.9 1.1-1.1 1.4s-.2.3-.3.5c-.1.1-.1.2-.1.2 0 .1.1-.1.2-.1s-.1.2.1 0-.2.3-.1.2c.1-.1.4-.5.6-.7s0 .1-.1.1c-.2.2-.2.2-.3.4 0 0-.2.3-.1.2.1 0 .2-.3.3-.3 0 0-.2.3-.1.3s.3-.3.3-.3c.1 0-.3.4-.2.3.2-.1.4-.5.5-.7v.1s.1-.1 0-.1v.1c-.1.2-.4.6-.3.5 0 0 .6-.8.7-.9l.6-.7-.5.3c-.2.2-1 1.2-.9 1.2 0 0 .2-.3.3-.3.2-.2.3-.4.5-.5l.1-.1s.7-1 .7-.9c0 0-.3.5-.4.6-.1.1-.3.4-.3.4s.2-.3.1-.1c0 0-.7.9-.6.8.1 0 .4-.4.6-.7.1-.1.4-.5.5-.7.3-.3 0 .1-.1.2-.2.2-.3.3-.3.5v.1c-.1.1-.3.4-.4.6 0 0-.1.2 0 .1 0 0 .4-.6.5-.7l.3-.3s-.3.3-.3.4c0 0 .1 0 0 0-.1.2-.2.3-.3.4-.2.3-.2.3.1.1-.1-.1-.1-.1 0-.3.4-.6-.3.3-.2.3s.3-.3.4-.5l.1-.1c.1-.1.2-.2 0 0-.1.2.1 0 .2-.2.1-.1.2-.3.3-.4.1-.2.3-.3 0 0 0 .1-.1.2-.2.4s-.5.8-.5.9c0 0 .1-.2.2-.3-.1.1-.2.1-.2.1.2-.3.2-.2.1-.1.1-.2.3-.5.2-.2 0 0 0 .1-.1.2 0 .1-.1.2-.2.2 0 0 .2-.1.1-.1l.2-.2c.3-.3.6-.7 1-1.1 1.7-2.1 4-4.8 5.8-6.7.2-.2.1-.1.2-.3.2-.2-.9 1-1 1.1-1.2 1.3-2.3 2.7-3.7 4.4-.4.5-1 1.3-1.5 1.8-.2.2-.3.4-.4.5l-.4.5c.1 0 .8-1 .9-1.1 1.2-1.5 2.7-3.2 4-4.7 2.2-2.5 4.4-4.9 6.4-7 2 2.3 4.2 4.5 6.4 7.1 1.3 1.6 2.8 3.2 4 4.8.2.2.9 1.1.9 1.1s-.2-.3-.3-.4c-.1-.1-.3-.3-.4-.5-.4-.5-1-1.3-1.5-1.8-1.4-1.7-2.5-3-3.7-4.4-.2-.2-1.2-1.4-1-1.1.2.2.1.1.2.3 1.7 2 4 4.7 5.7 6.8.3.4.7 1 1 1.1l.2.2s.1 0 .1.1c0 0-.1-.1-.1-.2-.1-.1-.1-.2-.1-.2-.2-.3.1.1.2.2-.1-.1-.1-.2.1.1l-.1-.1c.1.1.2.3.2.3s-.4-.6-.5-.7c-.1-.2-.3-.3-.3-.4-.3-.3-.1-.2 0 0 .2.2.3.3.3.4.1.2.3.3.2.2-.1-.2-.1-.2 0 0l.1.1c.1.2.3.4.4.5s-.6-.9-.2-.3c.2.2.2.2.3.4.3.3.3.3.1-.1-.1-.2-.3-.3-.3-.4-.1-.1.1 0 0 0 0-.1-.3-.3-.3-.4l.3.3c.1.1.5.7.5.7v-.1c-.1-.2-.3-.5-.4-.6v-.1c-.1-.2-.3-.3-.3-.5-.1-.1-.4-.5-.1-.2.1.2.5.6.5.7.3.3.5.7.6.7s-.5-.8-.6-.8c-.1-.2.1.1.1.1s-.3-.4-.3-.5c-.1-.1-.4-.5-.4-.6l.7.9c.1.1.1 0 .1.1.1.1.3.3.4.5.1.1.2.3.3.3s-.7-1-.9-1.2l-.3-.4s.5.7.6.7c.1.1.7.9.7 1 .1.1-.3-.4-.3-.5v-.1.1-.1c.2.2.4.6.5.7.2.1-.2-.3-.2-.3.1 0 .3.3.3.3.1 0-.2-.3-.1-.3s.2.3.3.3c.1 0-.1-.2-.1-.2-.2-.3-.2-.3-.3-.4-.1-.1-.3-.3-.1-.2s.4.6.6.7c.1.1-.3-.3 0-.2.2.2 0 0 .1 0s.2.2.2.1c0 0-.1-.1-.1-.2-.1-.2-.2-.3-.3-.4-.2-.3-.9-1.2-1.1-1.4-.4-.5.3.3.3.4.2.3.8 1 1 1.2l.1.1s.2.3.3.3c0 0 .3.1.3.2v-.2s-.2-.3-.3-.3c0 0 .4.5.5.5s-.3-.5-.2-.3c.3.3 0-.2-.2-.3-.2-.2-.4-.5-.4-.5 0-.1.3.3.3.4.1.1.1 0 .2.2.2.2.3.4.3.4l-.1-.2c-.2-.3-.2-.2 0 0 .1.2.3.3.2.2-.1-.1-.3-.5-.3-.5 0-.1.2.2.3.2s-.1-.3-.3-.4c-.6-.8-1.1-1.5-2-2.5-.4-.5-.9-1-1.3-1.6-.3-.3-.5-.6-.9-1-.2-.2-.9-1-1-1.1 0-.1.3.3.3.4 1.1 1.4 2.3 2.8 3.5 4.2.3.4.6.8.9 1.1.2.2.7 1 .8 1l-.1-.1c-.1-.1-.1-.2-.2-.3-.2-.3-.6-.8-1-1.2-.3-.3-.4-.6-.7-.9-1.9-2.3-3.7-4.5-5.5-6.5-.8-.9-1.5-1.7-2.3-2.5-.8-.9-1.5-1.7-2.3-2.5-.3-.3-.5-.6-.9-1l.1-.1c1 1.1 2 2.3 3 3.4.7.8 1.5 1.6 2.2 2.4.5.6 1 1.2 1.6 1.7.9 1 1.7 2 2.4 2.9l1.5 1.8c.3.3.5.6.8 1 .2.3.3.4.4.6.1.1.2.1.3.3.1.1.2.3.3.3.3.4.2.1 0-.3.1.2.2.3.3.3.1-.3.3-.1.3-.1zM27.7 2.6c.2-.2.1 0 0 0-.1.1 0 0 0 0zm1.2-1.5s0 .1 0 0c-.1.1 0 0 0 0zM26 4.7c-.1.1-.1 0 0 0zm-.3.2c.2-.2.1 0 0 0-.1.2 0 0 0 0zm-.3.3s0 .1 0 0c0 .1 0 0 0 0zm-.1.1c.1 0 .1 0 0 0-.1.2 0 .1 0 0zm-.1.2s-.1 0 0 0c-.1.1 0 0 0 0zM26.5 3c0-.1 0 0 0 0zm-.3.3s-.1 0 0 0c-.1 0 0 0 0 0zm-.1 0s-.1.1 0 0c-.1.1 0 0 0 0zm-.4.4c.1 0 0 .1 0 0 0 .1 0 0 0 0zm-4 4s-.1.1 0 0c-.1.1 0 0 0 0zm-.1-.1s0 .1 0 0c0 .1 0 0 0 0zm0 .2zm-.1.1s-.1.1 0 0c-.1.1 0 0 0 0zm-.2.2c0-.1 0 0 0 0zm-.2.2c0 .1 0 0 0 0zm-.1.4c-.1.1 0 0 0 0zM25 4s-.1 0 0 0c-.1 0 0 0 0 0zm-.5.5c.3-.4.2-.3 0 0 .1-.1.1 0 0 0-.1.1 0 0 0 0zm-.1.1c-.1.1 0 0 0 0zm-.1.1zm-.1 0s0 .1 0 0c-.1.1 0 0 0 0zm-.1.1s-.1.1 0 0c-.1.1 0 0 0 0zm-.1.1zm0 .1s-.1.1 0 0c-.1.1-.1.1 0 0zm1.3-2.7s-.1 0 0 0c-.1.1-.1 0 0 0zm-.2.1c.1 0 0 .1 0 0 0 .1 0 0 0 0zm-.1.1c-.1.1 0 0 0 0zM15.6 11c-.1.1 0 0 0 0zm-1 0zM5.2 2.2s0 .1 0 0c0 .1-.1 0 0 0zm0 .1s0 .1 0 0c0 .1 0 0 0 0zm.1.1c0 .1 0 0 0 0zm0 1.5c0 .1.1.1 0 0 .1.1 0 0 0 0zm.6.5c-.3-.3-.4-.4 0 0-.2-.1-.1-.1 0 0 0 0 0 .2 0 0zm0 .1s0 .1 0 0c0 .1 0 0 0 0zm.1.1c0 .1 0 0 0 0zm.1.1s.1 0 0 0zm.1.1s.1 0 0 0c.1 0 0-.1 0 0zm.1.1c.1 0 0-.1 0 0zm.1.1s.1.1 0 0c.1 0 0 0 0 0zM3.9 2.9s0 .1 0 0zm.2.3s.1.1 0 0c.1.1 0 0 0 0zm.1.1s.1 0 0 0c.1 0 0 0 0 0zm.4.3c0 .1 0 .1 0 0 0 .1 0 0 0 0zm4 4.1s.1.1 0 0zm.1-.1s-.1-.1 0 0zm0 .2c.1.1 0-.1 0 0zm.1.1s.1.1 0 0c0 .1 0 0 0 0zM9 8s.1.1 0 0c.1.1 0 0 0 0zm.2.2s0 .1 0 0c0 .1 0 0 0 0zM1.4 1s.1.1 0 0c.1.1 0 0 0 0zm1.2 1.5c-.1 0-.1-.2 0 0 0 0 .1.1 0 0zm1.8 2.2c.1 0 0 0 0 0zm.2.1s-.1-.1 0 0c0 0 .1.2 0 0zm.3.3s0 .1 0 0c0 .1 0 0 0 0zm.2.2c-.1 0-.2-.1 0 0 0 0 .1.2 0 0zm.1.1s0 .1 0 0c0 .1 0 0 0 0zM.8 28s.2-.1 0 0zm1 .1c-.1.1-.5.7-.3.3l.3-.3s.1-.1 0 0zm.8.4s0 .1 0 0c0 .1-.1.1 0 0zm.3-.3c.1-.1 0 0 0 0zm.2-.1l.1-.2s0 .1-.1.2zm.3-.7l-.3.3c-.2.2.3-.5 0-.1.2-.2.3-.3.6-.7.3-.3.3-.4.6-.8l-.2.2c-.2.4-.4.8-.7 1.1zm.7-.6s.5-.6.3-.3l-.3.3zm.3.9c.1-.2.1-.1 0 0zm.1-1.3s.1-.1 0 0c.1-.1 0 0 0 0zm10-12.3zm-.1 1.1c-.5.6-1.1 1.2-1.7 1.8-1.7 1.7-2.6 2.8-3.8 4.3-.2.2-.3.3-.4.5-.2.1-.8.8-.8.8 0-.1.5-.6.6-.7 1-1.1 1.9-2.2 2.9-3.3 1-1.2 2.1-2.3 3.2-3.4-.1 0 0 0 0 0zm-5.2 5.4s.4-.5 0 0c.1-.1 0 0 0 0zm.3-.3s.4-.4 0 0c.1-.1 0 0 0 0zm.3-.3l.1-.2s0 .2-.1.2zm1.1-1.3c-.2.2-.6.7-.6.7s.4-.5.6-.7c1.1-1.3 2.3-2.5 3.3-3.7-1 1.3-2.2 2.5-3.3 3.7zm.6-1.4s.4-.5 0 0c.1-.1.1 0 0 0zm2.6-4zm.1-.2c0 .1 0 .1 0 0 0 .1 0 .1 0 0 0 .1 0 .1 0 0zm-.1-.1c0 .1 0 .1 0 0 0 .1 0 0 0 0zm0 .3zm-.1-.2s0 .1 0 0c0 .1 0 .1 0 0 0 .1 0 .1 0 0zm0 .1zm-3.4-4.7c0-.1 0 .1 0 0zm-.1-.1s0-.1 0 0c0-.1 0 0 0 0zm-.1-.1s-.1-.1 0 0c0-.1 0 0 0 0zM8 5.9s-.1-.2 0 0c.2.1.3.3 0 0zm.3.2s.1.1 0 0zm.6.6s.1.1 0 0c0 .1 0 0 0 0zm.1.1c0 .1 0 0 0 0zm.3.4s0 .1 0 0c0 .1-.1 0 0 0zm0 .1c.1 0 0 0 0 0zm.3.1c-.1 0-.2-.1 0 0 0 0 .1.2 0 0zm.2.2l.2.2v.1l.1.1h.1c.1 0 .1.2 0 0h-.1l-.1-.1-.1-.1-.1-.2c.1.2 0 .1 0 0-.1 0-.2-.2 0 0zM11 9.7c-.3-.3-.7-.7-1-1.1s-.1-.1 0 0c.8.7 1.7 1.7 2.3 2.4.5.6 1.1 1.2 1.7 1.8-1.1-1-2.1-2.1-3-3.1zm2.9 3.8zm-.1-.1c.1 0 0 0 0 0zm-.5-1.1c-.1-.1 0 0 0 0zm-3-3.1c-.1 0-.1-.1 0 0-.1 0 0 0 0 0zm-.2-.1s0-.1 0 0c0-.1 0 0 0 0zM10 9c0-.1.1 0 0 0zm-.1-.1s0-.1 0 0c0-.1 0 0 0 0zm-.1-.1s0 .1 0 0c.1.1.1.2.1.2l.3.3c1 1 2.2 2.2 3.1 3.3.1.1.3.3.3.4l-.1-.1c-1.1-1.2-2.3-2.4-3.4-3.6l-.2-.2c0-.1 0-.2-.1-.3.1.1 0 0 0 0-.1-.1-.2-.1 0 0zm1.2 1.4l-.4-.4-.1-.1c-.2-.1-.2-.3 0 0l.1.1.7.7c.2.3-.3-.2-.3-.3zM9.5 8.6s0 .1 0 0zm-.2.1zm3.4 4.1s0 .1 0 0c0 .1 0 0 0 0zM9.5 8.9c-.1-.1-.1-.2 0 0 1.3 1.3 2.7 2.8 4.1 4.3-1.4-1.5-2.8-3-4.1-4.3zm4.1 4.9zm-.5-.5s.1.1 0 0zm.2.1zm-.8 1.7c.2-.3.5-.6.9-1-.2.2-.3.3-.4.5-.2.1-.5.5-.5.5-.1 0 0 0 0 0zm-.2.1c.1 0 0 .1 0 0 0 .1 0 0 0 0zm-.4.4s0 .1 0 0c0 .1 0 0 0 0zm0 1.2c.3-.3.5-.6.8-.8.3-.3.6-.7.9-1l.3-.3c-.1.2-.3.3-.3.3-.3.3-.6.7-.9 1-.3.4-.5.7-.8.8-.2.4-.1.2 0 0zm-.1-1s-.1.1-.1.2c0-.1.1-.2.1-.2zm-.2.3zm-.3.2c0 .1 0 0 0 0zm0 1.2c.3-.2.2-.1 0 0-.2.3-.1.1 0 0zm-.1-1zm-.3.2s-.1.1-.1.2c0-.1.1-.2.1-.2zm-.2.2zM7.1 21l-.3.3.3-.3zm-.5.5s-.4.5-.5.6c0 0 .5-.5.5-.6zm-.3 1.7c1.4-1.7 3-3.4 4.2-4.7.3-.3.2-.2 0 0-.7.8-1.4 1.6-2.1 2.3-.8.9-1.6 1.8-2.3 2.5-.2.3.2-.1.2-.1zm.5.9s.1 0 0 0c.1 0 0 0 0 0zm1.1-1.8c1.7-2 2.8-3.1 4.7-5.3.6-.6 1.1-1.2 1.7-1.8-.3.3-.7.8-1 1.1-1.6 1.7-3.1 3.4-4.7 5.2-.4.5-.9 1-1.4 1.7-.3.3.7-.7.7-.9zm.8-.3c-.1.1-.1 0 0 0l.3-.3c.3-.5-.1 0-.3.3zm-.7.7l-.2.3c-.1.1.6-.7.2-.3zm-.1.7c-.1.1-.3.4-.4.4.1 0 .6-.9.8-.9 0 .1-.3.5-.4.5zm.6-.5c.1-.1 0 0 0 0zm.4-.5l-.3.3c0 .1.6-.6.3-.3zm.4-.5l-.3.3c0 .1.6-.7.3-.3zm.2-.2l.2-.3s-.1.3-.2.3zm1.1-1.8l-.2.2c-.1.1-.6.7-.4.4.1-.2.4-.4.6-.6 1.4-1.6 2.7-3 4.1-4.4-1.4 1.4-2.8 2.9-4.1 4.4zm4-6s.1 0 0 0c.1 0 0 0 0 0zm.1 0zm.1.6zm0-.7zm.1.8zm0 .1s0-.1 0 0c0-.1 0-.1 0 0zm.1-.4c0-.1 0-.1 0 0 0-.1 0-.1 0 0 0-.1 0-.1 0 0 0-.1 0 0 0 0zm.1-.1c-.1 0-.1 0 0 0-.1 0-.1 0 0 0zm0 .1c0 .1 0 .1 0 0 0 .1 0 .1 0 0zm.1-.2s-.1 0 0 0c-.1 0 0 0 0 0zm-.1-.7s.1 0 0 0c.1 0 .1 0 0 0 .1 0 .1 0 0 0 .1 0 .1 0 0 0zm.1.9c-.1 0-.1 0 0 0-.1 0-.1 0 0 0zm0 .5c-.1 0-.1 0 0 0-.1 0-.1 0 0 0zm0-.4s-.1 0 0 0c-.1 0 0 0 0 0zm0 0c0-.1 0-.1 0 0 0-.1 0-.1 0 0zm0-2.4s-.1 0 0 0zm0 2.2s.1 0 0 0c.1 0 .1 0 0 0 .1 0 .1 0 0 0 .1 0 0 0 0 0zm.1.1s0-.1 0 0c0-.1 0-.1 0 0 0-.1 0-.1 0 0 0-.1 0 0 0 0zm12.2 14.3c.1.1 0 .1 0 0 0 .1 0 0 0 0zm.9-.5c.1.1.2.3.3.3.2.4-.2-.1-.3-.3-.2 0 0 0 0 0zm-2.6-1.5l.3.3c-.1 0-.3-.3-.3-.3zm1.5 1.7zM27 28l.1.2c-.1-.1-.1-.2-.1-.2zm-1.2-1.8c.3.3.3.4.6.8s.4.5.6.7c-.3-.4.3.3 0 .1 0 0-.2-.3-.3-.3-.3-.3-.5-.6-.8-1 0-.1-.3-.4-.1-.3zm0 1.5c-.1-.1 0 .1 0 0zm-.1-1.2c0-.1-.1-.1 0 0 0-.1 0 0 0 0zm-8.2-13.6s0-.1 0 0c.1-.1 0 0 0 0zm3.3-4c-1.3 1.4-2.7 2.8-4.1 4.3 1.3-1.5 2.7-3 4.1-4.3.1-.2 0 0 0 0zm-4.2 5s0-.1 0 0c0-.1 0-.1 0 0zm2.4-3.3l.7-.7.1-.1c.2-.3.2-.1 0 0l-.1.1c-.1.2-.3.3-.4.4 0 0-.6.5-.3.3zm1.8-2s-.1.1 0 0c-.1.1 0 0 0 0zm-.4.3c0-.1 0 0 0 0-.1 0 0 0 0 0zm-.1 0c-.1.2 0 .1 0 0zm-.1.2s-.1 0 0 0c-.1.1 0 0 0 0zm-.1.1s-.1.1 0 0c-.1.1-.1 0 0 0zm-2.9 3c-.1.1-.1 0 0 0zm-.3.5c1-1 2.3-2.3 3.2-3.3.1-.1.2-.3.3-.3l.1-.1.1-.1c.2-.2.1-.1 0 0l-.1.1-.1.1c-.1.1-.2.3-.3.3-1.1 1.1-2.3 2.3-3.4 3.6h-.1c0-.1.1-.3.3-.3zm-.4.7zM22.3 6c.1-.2 0 0 0 0-.3.2-.2 0 0 0zm-.3.1s0 .1 0 0c0 .1 0 0 0 0zm-.6.7c0-.1-.1 0 0 0-.1 0 0 0 0 0zm-.1 0c0 .2 0 .1 0 0zm-.3.4s0 .1 0 0c0 .1 0 0 0 0zm-.1.1c-.1 0 0 0 0 0zm-.2.1c.2-.1.1 0 0 0 0 .2 0 .1 0 0zm-.7.7l.2-.1.1-.1.1-.1.1-.1c.1-.2.1 0 0 0l-.1.1-.1.1-.1.1-.2.1c.1 0 .1 0 0 0 0 .2 0 0 0 0zm0 .1s0 .1 0 0c-.1.1 0 .1 0 0zm-.1.2s-.1 0 0 0c-.1.1 0 0 0 0zm-.1.1zM18 11c.7-.7 1.6-1.7 2.3-2.4.1-.1.3-.3 0 0s-.7.7-1 1.1c-1 1-1.9 2-3 3.1.6-.6 1.2-1.2 1.7-1.8zm-1.6 2.5zm-.1-.3s-.1 0 0 0c-.1 0-.1 0 0 0-.1 0-.1 0 0 0zm-.1-.1c0 .1 0 .1 0 0 0 .1 0 .1 0 0 0 .1 0 0 0 0zm-.1.2zm0 0zm0-.3c0 .1 0 .1 0 0 0 .1 0 .1 0 0zm-.1.1c0 .1 0 .1 0 0 0 .1 0 .1 0 0 0 .1 0 .1 0 0 0 .1 0 .1 0 0zm0 2.1c1 1.1 2.1 2.3 3.1 3.5 1 1.1 1.9 2.2 2.9 3.3.1.1.5.6.6.7 0 0-.6-.7-.7-.8-.1-.2-.3-.3-.4-.5-1.3-1.5-2.3-2.5-3.8-4.3-.7-.7-1.2-1.3-1.7-1.9-.1 0 0 0 0 0zm4.3 4.7l.1.2c0-.1-.1-.2-.1-.2zm.4.4c-.3-.3 0 .1 0 0zm.3.4c-.3-.5 0 0 0 0zm-5.2-6.6zm-.5.6s0-.1 0 0c0-.1 0 0 0 0zm0-.1s.1 0 0 0c.1 0 0 0 0 0zm.1-.8s.1 0 0 0c.1 0 .1 0 0 0zm0 .7c.1 0 .1 0 0 0 .1 0 0 0 0 0zm.1-.6c.1 0 .1 0 0 0 .1 0 .1 0 0 0zm.1 0zm4.3 6.2l-.2-.2c-1.4-1.5-2.7-3-4-4.4 1.3 1.5 2.7 3 4 4.5.2.2.4.4.6.7.2.1-.3-.5-.4-.6zm.6 1.4c.1 0 .2.3.2.3 0-.1-.2-.3-.2-.3zm.4.5c-.3-.3.3.4.3.3 0-.1-.3-.3-.3-.3zm.4-.3l.3.3c.1.1.2.2 0 0-.3-.2-.7-.7-.3-.3zm0 .8c-.3-.3.3.4.3.3l-.3-.3zm.4.3s.1.2 0 0c.1.2 0 0 0 0zm.5.7c-.1-.1-.3-.4-.3-.4.1.1.7.9.8 1-.1-.1-.4-.5-.5-.6zm.3-.4l-.3-.3c-.4-.5.4.4.3.3zm.5.2c-.5-.6-1-1.1-1.4-1.7-1.6-1.8-3.1-3.5-4.7-5.2-.3-.4-.7-.8-1-1.1.5.6 1.1 1.2 1.7 1.8 1.9 2.2 3 3.3 4.7 5.3.1.1 1 1.2.7.9zm.3.8zm.7-1.9c-.1-.1-.4-.6-.5-.6.2 0 .5.6.5.6zm-.6-.8l-.3-.3c-.2-.3.3.3.3.3zm-3.7-2.9c1.2 1.3 2.8 3.1 4.2 4.8.1.1.4.5.1.2-.7-.8-1.5-1.7-2.3-2.6-.6-.8-1.3-1.6-2-2.4-.1-.2-.2-.4 0 0zm-.2-1.5s.1.1 0 0zm-.1-.1c-.1-.1-.1-.2-.1-.2l.1.2zm.6 2.5s-.4-.5-.6-.7c-1.1-1.2-2.2-2.4-3.3-3.7 1 1.2 2.1 2.3 3.3 3.7.1.2.5.7.6.7zm-1.4-2c-.2-.5.1 0 0 0zm.6-.8zm-.2-.2s-.1-.2 0 0c-.1-.1 0 0 0 0zm-.1 1.1c.2.2.3.4 0 0-.2-.1-.3-.2 0 0zm-.2-1.4zm-.1-.1c-.1-.1-.1-.2-.1-.2l.1.2zm-.2-.3s-.1 0 0 0c0 0 0 .1 0 0zm-.1 1.2l-.8-.8c-.3-.3-.6-.6-.9-1l-.3-.3.3.3c.3.3.6.6.9 1 .3.2.5.5.8.8.2.1.3.3 0 0zm-.3-1.6s0-.1 0 0c0-.1 0 0 0 0zm-.2-.2s.1.1 0 0c0 .1-.3-.3-.4-.5-.2-.2-.3-.3-.4-.5.3.4.6.7.8 1zm-.8-1.6c0-.1.1-.1 0 0 .1-.1 0-.1 0 0zm.1-.1c.1-.1 0 0 0 0zm12.3 14.7c-.2-.1 0 0 0 0zM13 12s-.1-.2-.2-.2c.1.2.1.2.2.2zm.3.5c.2.2.1 0 0 0zM4.3.4c-.1-.2-.1 0 0 0zM3 1.3c-.1-.2 0 0 0 0zm10.8 11.5c-.2-.1-.1 0 0 0zM3 1.3c.1 0 .1 0 0 0z" fill="#e30613"/></svg>