<svg xmlns="http://www.w3.org/2000/svg" viewBox="0 0 30 30"><path d="M13.6 26.5l-1.7-.8.8-.3c2.2-.8 5.2-2.5 5.2-2.6 4.1-2.5 7.7-5.9 7.8-6 4.1-4 2.5-7.2 2.4-7.2-1.6-3.9-6.7-4.7-6.7-4.7-1-.2-2.1-.4-3.3-.4-3.1 0-6 .8-6 .8C7.5 6.5 4.6 8.9 4.6 9c-2.8 2.2-3 4.4-3 4.4-.4 2.3 1.4 3.9 2.6 5h.1c1.1 1 4 2 5.3 2.2 1.2.3 5.4.6 5.5.6l.1.1 1.8 1-1.4-.1c-6.1-.1-8.4-1.3-8.4-1.3C1.1 18.8.4 15.2.3 15.1c-1.1-4.7 4.5-7.9 4.7-8 4.7-2.9 9.1-3.2 9.3-3.3 1.1-.1 2.3-.3 3.5-.3 2.7 0 4.3.4 4.4.5 6.6 1.9 7.5 5.2 7.6 5.3 1.3 3.3-1 6.4-1.1 6.5-1.4 2.2-4.9 4.8-8.1 7-2.8 2-6.5 3.4-6.6 3.4l-.4.3z" fill="#e30613"/></svg>