<svg xmlns="http://www.w3.org/2000/svg" viewBox="0 0 30 30"><path d="M29.9 15c-.4-2.4-1.6-4.3-3.5-5.7-.4-.5-.9-.9-1.4-1.3-4.4-3.7-10.7-4.3-16.3-3.2-.3.1-.3.7.1.6 4.5-.6 9.4-.6 13.5 1.6.1.1.2.1.4.2-.8-.2-1.7-.4-2.6-.6-5.4-1-11.3-.4-16.3 1.8-2.2 1-3.5 2.4-3.8 4.9-.1 2.2.5 4.4 1.8 6.2 2.9 4.2 8 5.8 12.9 6 4.6.2 10.8 0 13.8-4.1 1-1.3 1.4-2.8 1.4-4.4.1-.5.1-1.2 0-2zm-28-4.6c1.5-1.6 4.6-2.1 6.8-2.6 2.4-.4 4.8-.7 7.2-.6 4.2.1 9.4 1.1 11.8 4.9 1.2 1.8 1.7 4.2.7 6.2-.8 1.8-2.6 2.9-4.4 3.5-2.1.7-4.4.9-6.6 1-2.7.1-5.3 0-7.9-.7C5 20.7.9 16.7 1.2 11.6v-.1c.1-.4.4-.7.7-1.1zm16.9 14.4c-4.5.3-9.4.1-13.3-2.5-1.8-1.3-3.4-3-4.2-5.1-.5-1.2-.8-2.7-.7-4.1.3 3.9 3.2 7.3 6.8 8.9 4.6 2.1 10.3 2.1 15.1 1.1 2.4-.4 4.6-1.5 6-3.2-1.5 3.5-6 4.6-9.7 4.9z" fill="#e30613"/></svg>