<svg xmlns="http://www.w3.org/2000/svg" viewBox="0 0 30 30"><path d="M26.9 10c-2.8.3-5.6.7-8.4 1l-2.4-9c-.1-.4-.7-.5-.9-.1-2.3 3.1-4.1 6.6-5.8 10.2-2.9.3-5.8.7-8.8 1-.6.1-.8.7-.3 1 2.1 1.6 4.2 3.1 6.4 4.6-1 2.8-1.9 5.6-2.7 8.4-.1.4.5.6.6.2.1 0 .3 0 .4-.1 2.8-1.3 5.6-2.7 8.2-4.1 2.9 1.8 5.9 3.5 9 5.2.4.2.9-.1.8-.6-.8-3-1.6-5.9-2.4-8.9 2-1.2 4-2.4 5.8-3.8 1-.8 3.7-2.2 3.5-3.8.1-1.4-1.9-1.4-3-1.2zM15.4 3.3l2.1 7.8c-2.3.3-4.6.6-7 .8 1.5-3 3.1-5.9 4.9-8.6zm2.5 9c.6 2 1 4 1.6 6.1-.8.6-1.7 1-2.6 1.5-1.2.7-2.4 1.3-3.5 2-1.8-1.1-3.5-2.3-5.3-3.5.7-1.7 1.4-3.5 2.1-5.2 1.7-.2 3.3-.4 5-.6.8-.1 1.7-.3 2.7-.3zM2.1 14.1c2.3-.3 4.5-.6 6.8-.8-.6 1.5-1.3 2.9-1.8 4.5-1.7-1.2-3.3-2.4-5-3.7zm3 11.9c.8-2.2 1.6-4.4 2.4-6.5 1.5 1 3.1 2 4.6 3.1-2.2 1.1-4.6 2.3-7 3.4zm14.7-6.5c.6 2.4 1.3 4.9 1.9 7.4-2.4-1.4-4.9-2.8-7.3-4.3 1.8-1 3.6-2.1 5.4-3.1zm8.6-7.4c-.6.9-2.1 1.7-2.9 2.4-.9.6-1.8 1.3-2.8 1.9-.8.5-1.5 1-2.3 1.5-.5-1.9-1-3.8-1.5-5.6 1.1-.1 2.3-.3 3.4-.4 1.3-.1 2.6-.3 4-.5.8-.3 3-.8 2.1.7z" fill="#e30613"/></svg>