<svg id="Layer_1" xmlns="http://www.w3.org/2000/svg" viewBox="0 0 30 30"><style>.st0{fill:#e30613}</style><path class="st0" d="M5.6 2.4c-.4.2-.9.3-1.4.3-.2-.5-.4-1.2-.7-1.8-.1-.3-.6-.2-.6.1-.2.7-.4 1.4-.6 2-.6.1-1.1.2-1.7.3-.2.1-.3.6 0 .7.4.2.8.4 1.3.5-.1.3-.2.6-.3 1h-.1c-.3.4.2.9.6.6.3-.4.6-.6 1-.9.4.1.9.3 1.4.5.3.1.6-.1.5-.4-.1-.5-.2-.9-.3-1.4.4-.3.8-.5 1.3-.7.3-.3.1-.8-.4-.8zM2.7 4c.1-.1.1-.2.1-.4.3 0 .6-.1.9-.1-.2.2-.5.5-.8.7 0 0-.2-.1-.2-.2zm.5-1.8c.1.2.1.4.2.7-.1 0-.4.1-.5.1.2-.3.3-.6.3-.8zm.9 2.5c-.1 0-.2-.1-.4-.2.1 0 .3-.1.3-.1 0 .1.1.2.1.3zM18.2 3.4l-3.9-.3L13.1.4c-.1-.4-.8-.5-.9 0-.2.8-.5 1.7-.8 2.6-1.3-.1-2.6-.1-3.9-.1-.5 0-.7.6-.2.9 1.1.7 2.2 1.4 3.2 2.1-.4 1.3-.7 2.6-1 3.9-.1.4.4.6.6.4.1.1.4.1.6-.1.8-.9 1.6-1.6 2.5-2.3 1.2.9 2.2 1.9 3.2 3 .3.4 1 0 .8-.5-.6-1.4-1.2-2.8-1.7-4.2.9-.6 1.9-1.2 3-1.7.5-.3.2-.9-.3-1zm-5.4-1.5c.1.4.3.8.4 1.2-.3 0-.6 0-.9-.1.2-.3.3-.7.5-1.1zm.8 2.2l.6 1.6-1.2.9c-.5-.4-1-.7-1.5-1.1.3-.5.4-1 .5-1.5.6 0 1.1 0 1.6.1zm-4.2-.2c.6 0 1.2.1 1.8.1-.2.3-.2.6-.4.9-.4-.4-.9-.7-1.4-1zm1.3 4.8c.2-.7.4-1.5.7-2.2.4.2.6.5 1 .7-.6.4-1.2.9-1.7 1.5zm4.7-.3c-.4-.4-.9-.8-1.4-1.2.2-.2.5-.4.7-.5.2.5.4 1.1.7 1.7zm-.7-4.2c.6 0 1.2.1 1.7.1-.4.3-.9.5-1.4.9 0-.4-.1-.7-.3-1zM21 15.2c-1.7 1-3.5 2-5.3 2.9-.2-.4-.5-.9-.7-1.3-.4-.6-.7-1.3-1.4-1.6-.4-.1-.6 0-.7.4-.1 1.4-.3 2.7-.4 4.1-1.1.5-2.2.9-3.2 1.4-.9.4-1.6.7-2.2 1.5-.2.3 0 .6.3.7 1.5.4 3 .9 4.6 1.2-.1 1.6-.3 3.2-.4 4.8 0 .2.1.3.3.3.1.4.8.5.9 0 .4-1.5 1-3 1.7-4.3.6.1 1.2.4 1.9.5.9.2 2.6.4 3.2 1.2.4.5 1.2.1.9-.5-1-1.8-2.1-3.7-3.1-5.5 1.3-1.7 2.7-3.4 4.2-5 .4-.4-.1-1.1-.6-.8zm-5.6 4.2c.3.5.6 1 .9 1.4-.8 1-1.5 2.1-2.1 3.2l-1.2-.3c.1-1.2.3-2.2.4-3.4.5-.2 1-.4 1.5-.7.1 0 .3-.1.5-.2zm-.5-.9c-.5.2-1 .5-1.5.7.1-.9.2-1.9.3-2.8.6.6.9 1.6 1.2 2.1zm-6.3 4.1c.7-.6 1.8-.9 2.7-1.2.4-.1.8-.4 1.2-.6-.1.9-.1 1.9-.2 2.7-1.3-.2-2.6-.6-3.7-.9zm3.9 5.2c.1-.9.2-1.9.4-2.9.3.1.5.1.8.2h.1c-.6.8-1 1.7-1.3 2.7zm6.3-2.5c-1.1-.4-2.4-.5-3.3-.8-.1 0-.2-.1-.3-.1.5-.9 1.1-1.7 1.7-2.6.6 1.2 1.2 2.4 1.9 3.5zm-2-5.3l-.6-.9c.9-.4 1.8-.9 2.7-1.4-.7.8-1.4 1.7-2 2.5 0-.1-.1-.2-.1-.2zM29.1 7.1c-.9-.1-1.9-.1-2.9-.2l-.6-2.7c-.1-.4-.7-.4-.9 0-.3.9-.6 1.7-1 2.6H21c-.4 0-.6.6-.2.9.7.4 1.4.8 2.2 1.3-.3.7-.6 1.5-.8 2.2-.1.1 0 .3.1.4.1.2.4.4.6.2l2.1-1.2 1.2 1.2c.2.3.9.1.8-.3-.1-.6-.1-1.2-.3-1.9.9-.5 1.7-1.1 2.6-1.6.5-.3.3-.8-.2-.9zm-4-1.4c.1.4.1.8.3 1.2h-.7c.1-.4.3-.8.4-1.2zm.4 2.1c.1.4.1.9.2 1.3-.2.1-.4.2-.6.4-.4-.4-.8-.6-1.2-.9.1-.4.3-.6.3-.9.5.1 1 .1 1.3.1zm-2.7-.1h.7c-.1.1-.1.2-.1.4-.2-.1-.4-.2-.6-.4zm.4 3c.1-.4.4-.8.5-1.2.2.1.4.4.7.6-.5.1-.9.4-1.2.6zm3.3-2.8c.4 0 .9.1 1.2.1-.4.2-.7.4-1.1.6 0-.2-.1-.5-.1-.7zM7.9 11.8c-.6-.3-1.1-.5-1.7-.8V8.9c0-.3-.4-.4-.5-.1-.3.5-.6 1-.8 1.5l-1.5-.9c-.2-.1-.6.2-.5.5.4.6.9 1.2 1.2 1.7 0 .2-.1.4-.2.6-.1.1-.1.4-.3.6-.1-.1-.3 0-.4.1 0 .1-.1.2-.1.4-.1.1-.1.1-.2.1-.1.1-.1.4.1.3.1 0 .2 0 .3-.1.1.1.1.1.3.1.5-.2 1.1-.4 1.6-.6.3.4.5.9.8 1.4.1.2.6.1.5-.1-.1-.5-.1-1.1-.1-1.6.5-.1 1-.3 1.5-.4.2-.1.2-.4 0-.6zM5.7 9.9v.8c-.1-.1-.2-.1-.4-.1.2-.2.2-.4.4-.7zm0 1.5v.9c-.1 0-.2.1-.4.1-.2-.4-.3-.7-.5-1 0-.2.1-.3.2-.4.3.2.5.3.7.4zM4.5 11c-.1-.1-.1-.3-.3-.4.1.1.2.1.4.2-.1.1-.1.2-.1.2zM4 12.9c.1-.2.2-.4.4-.6.1-.1.1-.1.1-.2.1.2.2.4.4.6-.4 0-.7.1-.9.2zm2.3-1.2l.6.3c-.1.1-.4.1-.6.2v-.5z"/></svg>