<svg xmlns="http://www.w3.org/2000/svg" viewBox="0 0 30 30"><path d="M30 18.9c-1.1-1.5-2.5-2.8-3.9-4 1.2-1.6 2.3-3.2 3.5-4.8.1-.1.1-.3-.1-.3-1.5-.2-3-.2-4.6 0-.1 0-.1.2-.1.3h-.1V10c.4-1.7.7-3.4.9-5.2 0-.1-.1-.3-.3-.3-.7.3-1.4.5-2.1.7-.3.1-.7.2-.9.3-.1.1-1 .5-1.1.4-.4-.1-.5-1.5-.5-2-.1-.9-.3-1.8-.5-2.7 0-.1-.2-.2-.3-.1-1.2 1.1-2.3 2.3-3.4 3.6-.4-.9-.8-1.7-1.1-2.6-.1-.5-.3-.9-.3-1.5-.1-.2-.2-.2-.3-.1-.1-.1-.1-.1-.1-.2-.1-.1-.3-.1-.3 0-.9 1.4-1.6 2.8-2.1 4.4-1-.9-1.9-1.9-2.8-3-.2 0-.4.1-.5.2-.4 1.5-.6 3.1-.6 4.8C7.1 6 5.7 5.4 4.4 5c-.1-.1-.2 0-.1.2l1.2 3.9c.1.3.2.8.3 1.2-.7.2-1.5.5-2.2.7-.5 0-1.1.2-1.6.4-.1 0-.1.1-.1.1-.2.1-.4.1-.6.2-.1.1-.2.3-.1.3.5.5.9 1 1.4 1.5.6.6 1.6 1.2.9 2.1-.4.4-1.1.8-1.5 1.2-.6.5-1.3 1-1.9 1.5-.1.1-.1.3 0 .3 1.5.7 3 1.2 4.6 1.3.1 0 .2.1.3.1-.9 1.1-3.2 3.6-1.9 4.2.1 0 .2.1.3.1l.1.1c1.2-.2 2.4-.4 3.5-.7.5.3.2 1.4.1 2-.1.9-.1 1.9-.2 2.8 0 .2.2.2.3.1.5-.4.9-.8 1.3-1.2.6-.6 1.1-1.2 1.6-1.9.3-.3.5-.6.7-.9.3 1.7.8 3.4 1.5 5 .1.1.3.1.3 0 .2-.5.4-.9.6-1.4.3-.5.5-.9.7-1.4.3-.5.6-.9.9-1.4.4-.6.4-.8.9-.3.7.6 1.3 1.4 2 2 .6.5 1.3 1.1 1.9 1.6.1.1.3-.1.3-.2l.3-2.6c.1-.4.1-.7.1-1.1.2-.8.3-.9.9-.6.9.3 1.9.6 2.8.9.3.1.5.2.8.3h.1c.2.1.5.1.7.3.2.1.3-.2.3-.3l-1.2-2.7c-.1-.7-.3-1.5-.5-2.2.8.1 1.7-.2 2.4-.3 1.1-.1 2.2-.4 3.2-.7.2-.3.2-.4.2-.6zM25.3 25c-.1 0-.1-.1-.2-.1 0-.2 0-.3-.1-.5l.3.6zm4.2-6c-.1 0-.2.1-.3.1 0-.1 0-.2-.1-.3-1.2-1.3-2.4-2.5-3.5-3.7V15c0 .1.1.1.1.1 1.4 1.2 2.7 2.4 3.8 3.9zm-.5-8.8c-.1.1-.2.3-.3.4 0-.1-.1-.2-.2-.2-1.1-.1-2.1-.1-3.2-.2 1.3-.1 2.5-.1 3.7 0zm-4.7-.3v.1h-.2c.2-.8.4-1.6.7-2.4-.2.8-.4 1.6-.5 2.3zm.8-4.8c-.7.3-1.3.5-1.9.7-.5.2-1.4.7-2 .7 1.3-.5 2.6-.9 3.9-1.4zm-4.6.9c-.3-.5-.3-1.5-.4-2.3.2.8.3 1.6.4 2.3zM14.3.8c0 .1 0 .1.1.1-.6 1-1.1 2.1-1.6 3.2.4-1.1.9-2.2 1.5-3.3zm-2.1 4.5c.1.1.1.1.2.1 0 .1-.1.1-.1.3-.4-.4-.8-.9-1.1-1.3.3.2.6.6 1 .9zm-2.8-3c.1.1.1.1.1.2l-.1.1-.6 2.7c.2-1.1.3-2 .6-3zM4.8 5.6c0-.1-.1-.1-.1-.2.1 0 .1.1.3.1-.1 0-.2.1-.2.1zm3.8 1.6h.2v.1c-1.2-.6-2.4-1.1-3.6-1.7 1.1.4 2.2 1 3.4 1.6zm-2.7 3.5c.1 0 .1-.1.1-.1.1 0 .1.1.1.1 0 .1 0 .1.1.2-.3 0-.5-.1-.8-.1.2-.1.3-.1.5-.1zm-4.1 1.2c.1 0 .2-.1.3-.1.4.5.9 1.1 1.3 1.7.1.2.3.4.5.6-.8-.8-1.4-1.5-2.1-2.2zM.7 18.4c.8-.7 1.6-1.3 2.5-1.9.1-.1.2-.1.3-.2-.3.2-.6.5-.8.7-.6.5-1.1 1-1.7 1.5-.2 0-.2-.1-.3-.1zm2.9 5.3c-.3-.3-.1-.7-.1-.9.1-.4.5-.8.8-1.1.3-.5.7-.9 1-1.3-.5 1.1-1 2.2-1.7 3.3zm4.2 4l-.4.4c.1-1.5.3-3 .3-4.5h.1v4.1zm4.6 1.3c0-.1-.1-.1-.1-.2.1 0 .1 0 .2-.1l.1-.1c-.1.1-.1.3-.2.4zm2.9-4.8c-.3.4-.5.7-.8 1.1.2-.5.4-.9.6-1.4 0 .1.1.2.2.3zm4.3 3.9c-.1-.1-.3-.2-.4-.3.3-.1.4-.2.5-.3-.1.2-.1.4-.1.6zm5-3.4c-.1 0-.1-.1-.2-.1l-4.2-1.8c-.1-.1-.3.1-.3.3-.1.9-.2 1.7-.3 2.6-.1.8-.1 1.7-1 1.3-1.3-.7-2.5-2.3-3.3-3.4-.1-.1-.1-.1-.2-.1-.1-.1-.1-.1-.2 0-.3.7-.6 1.3-.9 2-.5.9-1 1.8-1.6 2.6-.4-1.5-.8-2.8-1.3-4.3-.1-.1-.3-.2-.3-.1-.7 1.3-1.7 2.5-2.7 3.4v-3.9c0-.1-.1-.3-.3-.2-.3.1-.5.1-.8.2-.5.1-1 .1-1.5.2-.2 0-.7.1-1.1.3-.2 0-.3 0-.5.1.8-1.2 1.5-2.5 2.1-3.8.1-.1 0-.3-.1-.3h-.1c0-.1-.1-.1-.1-.1h-.5c-1.3-.2-2.6-.5-3.8-.9l2.4-2.1c.3-.3 1.2-.8 1.3-1.3.1-.4-.3-.7-.5-.9-.7-.9-1.3-1.7-2-2.5.3-.1.7-.2 1-.3 1-.2 1.9-.3 3-.1.1 0 .3-.1.3-.3-.5-1.7-.9-3.3-1.4-5 1.2.6 2.4 1.1 3.6 1.7.1.1.3 0 .3-.2-.1-1.5.1-3 .5-4.5.8 1.1 1.6 2.1 2.5 3 .1.1.3.1.3-.1.5-1.7 1.3-3.2 2.1-4.7.1.2.2.5.3.7.3 1.2.7 2.3 1.3 3.4.1.1.2.1.3.1 1.1-1.1 2.2-2.3 3.2-3.3.1 1 .1 2.1.1 3 0 .5-.1 1.3.3 1.6.5.4 1.5-.2 1.9-.3l2.7-.9c-.5 1.5-1 3-1.3 4.4-.1.1.1.3.2.3 1.5.2 2.9.3 4.3.4-1 1.4-2 2.7-3 4.1-.1.1-.1.3 0 .3 1.1 1.2 2.3 2.3 3.3 3.5-1.6.3-3.1.5-4.7.8-.1 0-.2.2-.1.3-.1.1-.1.1-.1.3.2.8.5 1.6.8 2.3.2.8.2 1.6.3 2.3z" fill="#e30613"/></svg>