<?xml version="1.0" encoding="utf-8"?>
<!-- Generator: Adobe Illustrator 16.0.0, SVG Export Plug-In . SVG Version: 6.00 Build 0)  -->
<!DOCTYPE svg PUBLIC "-//W3C//DTD SVG 1.1//EN" "http://www.w3.org/Graphics/SVG/1.1/DTD/svg11.dtd">
<svg version="1.1" id="레이어_1" xmlns="http://www.w3.org/2000/svg" xmlns:xlink="http://www.w3.org/1999/xlink" x="0px"
	 y="0px" width="25.912px" height="25.698px" viewBox="0 0 25.912 25.698" enable-background="new 0 0 25.912 25.698"
	 xml:space="preserve">
<linearGradient id="SVGID_1_" gradientUnits="userSpaceOnUse" x1="13.0693" y1="25.6963" x2="13.0693" y2="-0.3631">
	<stop  offset="0" style="stop-color:#666464"/>
	<stop  offset="0.5" style="stop-color:#444140"/>
	<stop  offset="0.5" style="stop-color:#5F5E5E"/>
	<stop  offset="1" style="stop-color:#535151"/>
</linearGradient>
<path fill="url(#SVGID_1_)" d="M13.068,6.861c-3.248,0-5.879,2.633-5.879,5.881s2.631,5.88,5.879,5.88s5.881-2.633,5.881-5.88
	C18.949,9.494,16.316,6.861,13.068,6.861z M13.068,16.105c-1.857,0-3.363-1.506-3.363-3.364c0-1.858,1.506-3.363,3.363-3.363
	s3.363,1.505,3.363,3.363C16.434,14.6,14.928,16.105,13.068,16.105z"/>
<linearGradient id="SVGID_2_" gradientUnits="userSpaceOnUse" x1="13.0684" y1="25.7021" x2="13.0684" y2="-0.3635">
	<stop  offset="0" style="stop-color:#666464"/>
	<stop  offset="0.5" style="stop-color:#444140"/>
	<stop  offset="0.5" style="stop-color:#5F5E5E"/>
	<stop  offset="1" style="stop-color:#535151"/>
</linearGradient>
<rect x="12.088" fill="url(#SVGID_2_)" width="1.961" height="4.812"/>
<linearGradient id="SVGID_3_" gradientUnits="userSpaceOnUse" x1="20.3965" y1="25.6973" x2="20.3965" y2="-0.3642">
	<stop  offset="0" style="stop-color:#666464"/>
	<stop  offset="0.5" style="stop-color:#444140"/>
	<stop  offset="0.5" style="stop-color:#5F5E5E"/>
	<stop  offset="1" style="stop-color:#535151"/>
</linearGradient>
<polygon fill="url(#SVGID_3_)" points="22.791,4.379 21.404,2.993 18.002,6.395 19.389,7.781 "/>
<linearGradient id="SVGID_4_" gradientUnits="userSpaceOnUse" x1="23.5068" y1="25.6953" x2="23.5068" y2="-0.3613">
	<stop  offset="0" style="stop-color:#666464"/>
	<stop  offset="0.5" style="stop-color:#444140"/>
	<stop  offset="0.5" style="stop-color:#5F5E5E"/>
	<stop  offset="1" style="stop-color:#535151"/>
</linearGradient>
<rect x="21.102" y="11.786" fill="url(#SVGID_4_)" width="4.811" height="1.96"/>
<linearGradient id="SVGID_5_" gradientUnits="userSpaceOnUse" x1="20.4883" y1="25.6953" x2="20.4883" y2="-0.3608">
	<stop  offset="0" style="stop-color:#666464"/>
	<stop  offset="0.5" style="stop-color:#444140"/>
	<stop  offset="0.5" style="stop-color:#5F5E5E"/>
	<stop  offset="1" style="stop-color:#535151"/>
</linearGradient>
<polygon fill="url(#SVGID_5_)" points="21.496,22.576 22.883,21.189 19.48,17.788 18.094,19.174 "/>
<linearGradient id="SVGID_6_" gradientUnits="userSpaceOnUse" x1="13.1094" y1="25.6982" x2="13.1094" y2="-0.3621">
	<stop  offset="0" style="stop-color:#666464"/>
	<stop  offset="0.5" style="stop-color:#444140"/>
	<stop  offset="0.5" style="stop-color:#5F5E5E"/>
	<stop  offset="1" style="stop-color:#535151"/>
</linearGradient>
<rect x="12.129" y="20.886" fill="url(#SVGID_6_)" width="1.961" height="4.813"/>
<linearGradient id="SVGID_7_" gradientUnits="userSpaceOnUse" x1="5.6045" y1="25.6953" x2="5.6045" y2="-0.3608">
	<stop  offset="0" style="stop-color:#666464"/>
	<stop  offset="0.5" style="stop-color:#444140"/>
	<stop  offset="0.5" style="stop-color:#5F5E5E"/>
	<stop  offset="1" style="stop-color:#535151"/>
</linearGradient>
<polygon fill="url(#SVGID_7_)" points="3.211,21.318 4.596,22.705 7.998,19.303 6.611,17.917 "/>
<linearGradient id="SVGID_8_" gradientUnits="userSpaceOnUse" x1="2.4053" y1="25.6992" x2="2.4053" y2="-0.3661">
	<stop  offset="0" style="stop-color:#666464"/>
	<stop  offset="0.5" style="stop-color:#444140"/>
	<stop  offset="0.5" style="stop-color:#5F5E5E"/>
	<stop  offset="1" style="stop-color:#535151"/>
</linearGradient>
<rect y="11.915" fill="url(#SVGID_8_)" width="4.811" height="1.961"/>
<linearGradient id="SVGID_9_" gradientUnits="userSpaceOnUse" x1="5.3867" y1="25.6982" x2="5.3867" y2="-0.3633">
	<stop  offset="0" style="stop-color:#666464"/>
	<stop  offset="0.5" style="stop-color:#444140"/>
	<stop  offset="0.5" style="stop-color:#5F5E5E"/>
	<stop  offset="1" style="stop-color:#535151"/>
</linearGradient>
<polygon fill="url(#SVGID_9_)" points="4.379,2.996 2.992,4.382 6.395,7.785 7.781,6.398 "/>
</svg>
