<?xml version="1.0" encoding="utf-8"?>
<!-- Generator: Adobe Illustrator 19.2.0, SVG Export Plug-In . SVG Version: 6.00 Build 0)  -->
<svg version="1.1" id="Layer_1" xmlns="http://www.w3.org/2000/svg" xmlns:xlink="http://www.w3.org/1999/xlink" x="0px" y="0px"
	 viewBox="0 0 32 32" style="enable-background:new 0 0 32 32;" xml:space="preserve" width="32px" height="32px">
<style type="text/css">
	.st0{clip-path:url(#SVGID_2_);}
	.st1{fill:#CFCFCF;}
	.st2{fill-rule:evenodd;clip-rule:evenodd;fill:#31C292;}
	.st3{fill-rule:evenodd;clip-rule:evenodd;fill:#9A9A9A;}
	.st4{fill-rule:evenodd;clip-rule:evenodd;fill:#6E68CC;}
</style>
<g>
	<defs>
		<circle id="SVGID_1_" cx="16" cy="16" r="16"/>
	</defs>
	<clipPath id="SVGID_2_">
		<use xlink:href="#SVGID_1_"  style="overflow:visible;"/>
	</clipPath>
	<g class="st0">
		<circle class="st1" cx="16" cy="16" r="16"/>
		<g>
			<g>
				<path class="st2" d="M0,1v4h30V1H0z M0,18h30v-4H0V18z M0,31h30v-4H0V31z"/>
			</g>
		</g>
		<g>
			<g>
				<path class="st3" d="M9.9-3H0v2h9.9V-3z M0,10v2h21v-2H0z M0,25h21v-2H0V25z"/>
			</g>
		</g>
		<path class="st4" d="M26.3,13.2l-5.6-3.8l-2.4,6.7l2.4-0.9l2.3,7.2l3.2-1.2l-2.3-7.2L26.3,13.2z"/>
	</g>
</g>
</svg>
